<?xml version="1.0" encoding="utf-8"?>
<!-- Generator: Adobe Illustrator 25.0.1, SVG Export Plug-In . SVG Version: 6.00 Build 0)  -->
<svg version="1.0" id="Layer_1" xmlns="http://www.w3.org/2000/svg" xmlns:xlink="http://www.w3.org/1999/xlink" x="0px"
     y="0px"
     viewBox="0 0 243.7 152.8" style="enable-background:new 0 0 243.7 152.8;" xml:space="preserve">
<style type="text/css">
	.st0{fill:#8A3428;}
</style>
    <path d="M49.9,43c0.4-0.7,1.2-1,2-0.6c0.7,0.4,1,1.2,0.6,2c-0.2,0.3-0.4,0.5-0.7,0.7c0.7,0.1,1.3,0.5,1.5,1.2c0.2,1.4-0.1,2.8-1,3.9
	c-0.3,0.4-0.8,1-1.4,0.7c-0.8-0.6-1.3-1.5-1.6-2.4c-0.4-0.8-0.4-1.7,0-2.6c0.3-0.4,0.8-0.7,1.3-0.8C49.9,44.7,49.6,43.8,49.9,43
	 M44.7,48.2c0.4-1.6,1.8-2.6,3.4-2.6c-0.1,1.8,0.3,3.7,1.2,5.3C48.2,51,47,51.4,46,52C45.2,51,44.4,49.6,44.7,48.2 M54.4,45.6
	c1.6-0.1,3,1,3.4,2.6c0.2,1.4-0.3,2.8-1.3,3.8c-1-0.6-2.1-1-3.3-1.1C54.1,49.3,54.5,47.5,54.4,45.6 M46.9,52.9
	c0.8-0.5,1.8-0.8,2.8-0.8c1.8-0.2,3.6,0,5.3,0.5c0.7,0.2,0.5,1,0.5,1.6c-0.3,0.5-1,0.5-1.5,0.8c-0.1-0.4-0.1-0.8-0.1-1.3L53,53.4
	c-0.4,2.4,0,4.9,1.1,7c-0.4,0.4-0.8,0.9-1.1,1.4c-1.3-2.6-1.2-5.6-1.2-8.4h-1.3c0,2.8,0.1,5.7-1.1,8.3c-0.3-0.4-0.7-0.9-1.1-1.3
	c1.1-2.1,1.5-4.5,1.1-6.9l-0.9,0.3c0,0.4,0,0.9-0.1,1.3c-0.5-0.2-1-0.4-1.5-0.7C46.9,53.8,46.9,53.3,46.9,52.9 M32,52.8
	c1.6-0.6,3.4-0.2,4.5,1.1c0.6,0.6,0.3,1.5,0.1,2.1c-0.4,0.9-0.5,1.8-0.3,2.8c0.3,0.7,1,1.1,1.7,1.3c-0.1,0.4-0.2,0.8-0.3,1.2
	c-0.4,0.1-0.7,0.3-1,0.4c-0.7-0.7-1.2-1.6-1.5-2.6c-0.2-1.1-0.2-2.3,0.1-3.4c-0.8-0.9-2.1-1-3-0.2c0,0-0.1,0.1-0.1,0.1
	c1,1.5,1.8,3.1,2.5,4.8c0.1,0.9,0,1.8-0.2,2.7c-0.3,1.2-0.3,2.4,0,3.6c-1.6-1.2-2.8-2.8-3.6-4.7c0.9-0.3,2-1,2.1-2.1s-1-1.5-1.5-2.2
	c-1.2-1.3-1.1-3.3,0.2-4.5C31.6,53.1,31.8,52.9,32,52.8 M42.7,54.4c-0.8-0.7-0.2-2.1,0.8-1.8c0.9,0.3,0.8,1.5,0.1,1.9H44
	c0.6,0.6,0.7,1.6,0.3,2.4c-0.2,0.6-0.6,1.2-1.2,1.5c-0.7-0.2-0.9-1-1.2-1.6C41.6,56,41.7,54.8,42.7,54.4 M58.6,54.4
	c-0.7-0.6-0.5-1.9,0.5-1.9c0.6,0.1,1,0.6,0.9,1.2c0,0.2-0.2,0.5-0.4,0.6c0.7,0.3,1.1,1,0.9,1.7c0,0.9-0.5,1.8-1.2,2.3
	c-0.9-0.3-1.2-1.3-1.5-2.1C57.6,55.6,57.9,54.8,58.6,54.4 M66.8,53.1c1.1-0.8,2.6-0.9,3.8-0.2c1.3,0.9,1.7,2.6,1.1,4.1
	c-0.5,1-1.5,1.5-2,2.5c-0.3,1.3,1,2.2,2,2.5c-0.8,1.8-2,3.4-3.6,4.7c0.2-1.2,0.2-2.4,0-3.6c-0.3-0.9-0.3-1.8-0.2-2.8
	c0.7-1.6,1.5-3.2,2.4-4.7c-0.8-0.8-2.2-0.8-3,0c0,0-0.1,0.1-0.1,0.1c0.3,1.1,0.3,2.2,0.1,3.3c-0.3,1-0.8,1.9-1.5,2.6
	c-0.3-0.2-0.7-0.3-1-0.4c-0.1-0.4-0.2-0.8-0.3-1.2c0.7-0.2,1.5-0.5,1.7-1.2c0.4-1.3-0.3-2.5-0.6-3.7C65.5,54.3,66.2,53.6,66.8,53.1
	 M54.9,56.7c0.3-1,1.2-1.7,2.2-1.7c-0.1,1.2,0.2,2.5,0.8,3.6c-0.8,0.1-1.5,0.4-2.2,0.8C55,58.6,54.6,57.6,54.9,56.7 M61.5,54.9
	c1.1,0,2.1,0.8,2.3,1.9c0,0.8-0.2,1.5-0.7,2.1c-0.8-0.3-1.6-0.4-2.4-0.5C61.2,57.4,61.5,56.1,61.5,54.9 M38.6,56.6
	c0.2-1,1.2-1.8,2.3-1.7c-0.1,1.2,0.2,2.5,0.8,3.6c-0.8,0.1-1.6,0.2-2.4,0.5C38.7,58.3,38.5,57.5,38.6,56.6 M45.3,55
	c1,0,2,0.7,2.3,1.7c0.1,1-0.2,2-0.9,2.7c-0.7-0.4-1.4-0.7-2.2-0.8C45.1,57.5,45.3,56.2,45.3,55 M39.6,59.4c2-0.7,4.2-0.5,6.1,0.3
	c2,0.9,3.2,3,4,4.9c0.6,1.3,1.1,2.7,1.4,4.1c0.4-1.6,0.9-3.2,1.6-4.6c0.7-2,2.2-3.6,4.1-4.5c1.9-0.8,4-0.8,5.9-0.2
	c0.9,0.4,1.4,1.4,1.2,2.4c-1,0.2-2.1,0.4-3.1,0.7c-0.7,0.2-1.2-1-0.5-1.3c0.4-0.1,0.8,0.2,1.1,0.3c-0.3-0.7-1.2-1-1.9-0.7
	c-0.4,0.2-0.7,0.5-0.8,1c-0.1,0.8,0.7,1,1.2,1.2c-1.3,0.9-2.3,2.2-2.9,3.7c-0.8,2.2-0.4,4.7,1.1,6.6c1.6,2,4,3.1,6.6,2.9
	c0.5,0,0.9-0.2,1.1-0.6c0.2-0.5,0-1-0.5-1.2c-0.1-0.1-0.3-0.1-0.4-0.1c-0.6,0-0.6,0.5-0.6,0.9c-1,0.1-1.9-0.6-2-1.6c0,0,0,0,0,0
	c-0.1-0.9,0.3-1.7,1.2-2.1c2.5-1.3,5.1-2.7,6.8-5c1.4-2,2.5-4.1,3.2-6.4c0.2-0.3,0.6-0.4,0.9-0.3c0.2,0.1,0.3,0.3,0.3,0.5
	c-0.4,3.4-2.2,6.4-4.1,9.1c1.6-1.2,3-2.5,4.2-4.1c0.6-0.7,1.1-1.5,1.7-2.1c0.3-0.2,0.8-0.1,0.9,0.2c0.1,0.2,0.1,0.4,0.1,0.6
	c-1.4,3.4-4.2,6-7,8.2c2.8-1.2,5.4-2.9,7.6-5c0.5-0.7,1.7,0.2,1.1,0.8c-2,3-5.3,4.9-8.4,6.6c2.8-0.6,5.5-1.6,7.9-3
	c0.4-0.2,0.8-0.6,1.2-0.3c0.3,0.2,0.5,0.6,0.3,1c0,0.1-0.1,0.2-0.2,0.2c-2.6,2.4-6,3.6-9.3,4.7c2.8-0.1,5.6-0.6,8.2-1.4
	c0.5-0.2,1.2-0.3,1.3,0.3s-0.5,0.9-0.9,1.1c-2.8,1.5-6,1.9-9.2,2.3c2.8,0.4,5.6,0.5,8.5,0.3c0.4,0,0.7,0.3,0.7,0.7
	c0,0.2-0.1,0.5-0.3,0.6c-2.9,1.1-6,0.7-9.1,0.8c2.2,1.1,4.8,1.3,7.2,1.9c0.3,0.2,0.5,0.6,0.3,0.9c-0.1,0.2-0.2,0.3-0.4,0.3
	c-2.6,0.4-5.2-0.5-7.7-0.9c1.6,1.2,3.6,1.8,5.3,2.9c0.3,0.3,0.3,0.7,0,1c-0.1,0.2-0.4,0.2-0.6,0.2c-1.9-0.4-3.7-1-5.4-1.9
	c0,0.1,0,0.4,0,0.5c1,0.8,1.9,1.6,2.7,2.6c0.2,0.3,0.1,0.7-0.2,1c-0.1,0.1-0.3,0.1-0.5,0.1c-0.9-0.4-1.8-0.9-2.6-1.5
	c-0.4,2.3-0.6,4.7-0.7,7c0,0.5-0.1,1.1-0.3,1.6c-0.3,0.1-0.7,0.1-1,0.2c0.3-1.1,0.1-2.2-0.3-3.3c0.2-5.5,1.6-10.8,2.5-16.2
	c-2.8,0.4-5.7,0.8-8.4,0c1.2,3.1,1.6,6.5,0.9,9.7c-0.5,2.9-2,5.6-4.1,7.6c0.8,0.2,1.6,0.5,2.3,1c-0.1,0.5-0.3,0.9-0.6,1.3
	c-2,0.2-4.1,0.2-5.9,1.3c-0.9,0.5-1.1,1.7-0.6,2.5c0.1,0.1,0.1,0.2,0.2,0.3c1,1,2.3,1.8,3.7,2.3c1.4,0.4,2.9,0.5,4.3,0.9
	c0.3,0.2-0.1,0.5-0.3,0.7c-1.1,0.8-2.4,1.1-3.7,0.8c-1.9-0.5-3.6-1.6-4.7-3.1c0.5,1.7,1.6,3.1,3.2,3.9c0.7,0.4,1.6,0.4,2.3,0.8
	c-1.3,1.4-3.6,1-4.9-0.3c-0.3,0.8-0.7,1.6-1.1,2.4h-0.2c-0.4-0.7-0.8-1.5-1.1-2.3c-1.3,1.2-3.6,1.6-4.9,0.3c0.7-0.3,1.5-0.6,2.2-0.8
	c1.6-0.8,2.8-2.3,3.2-4c-1.2,1.6-2.9,2.7-4.8,3.1c-1.3,0.3-2.7,0.1-3.7-0.8c-0.2-0.2-0.5-0.4-0.2-0.7c1.6-0.5,3.3-0.5,4.9-1.1
	c1.2-0.5,2.3-1.3,3.2-2.2c0.6-0.8,0.5-1.9-0.3-2.6c-0.1,0-0.1-0.1-0.2-0.1c-1.7-1.1-3.9-1.1-5.9-1.3c-0.4-0.3-0.5-0.8-0.6-1.3
	c0.7-0.5,1.5-0.8,2.3-1c-2.2-2.1-3.7-5-4.2-8c-0.5-3.1-0.2-6.4,1-9.3c-2.7,0.8-5.6,0.5-8.4,0.1c0.8,5.3,2.2,10.5,2.5,15.9
	c0,0.4-0.1,0.8-0.3,1.1c-0.2,0.8-0.2,1.6,0,2.4c-0.5-0.1-1.2,0-1.2-0.6c-0.1-2.7-0.4-5.5-0.8-8.2c-0.8,0.6-1.7,1.1-2.6,1.5
	c-0.4,0.1-0.7-0.2-0.8-0.6c0-0.2,0-0.4,0.1-0.5c0.6-0.9,1.4-1.7,2.2-2.3c0.3-0.2,0.7-0.4,0.4-0.9c-1.7,0.9-3.5,1.5-5.4,1.9
	c-0.4,0-0.7-0.2-0.7-0.6c0-0.2,0.1-0.4,0.2-0.5c1.7-1.1,3.7-1.7,5.3-2.9c-2.5,0.4-5.1,1.3-7.7,0.9c-0.4-0.1-0.5-0.5-0.4-0.9
	c0.1-0.2,0.3-0.4,0.5-0.4c2.2-0.4,4.5-0.9,6.6-1.6l0.4-0.3c-3-0.1-6.2,0.3-9.1-0.8c-0.3-0.2-0.4-0.6-0.2-1c0.1-0.2,0.3-0.3,0.6-0.3
	c2.8,0.2,5.7,0.1,8.5-0.3c-3.3-0.5-6.7-0.8-9.6-2.5c-0.4-0.1-0.6-0.5-0.5-0.9c0-0.1,0.1-0.2,0.2-0.3c0.4-0.4,0.9-0.1,1.3,0
	c2.6,0.8,5.3,1.2,8,1.3c-3.2-1.1-6.7-2.2-9.2-4.6c-0.3-0.3-0.3-0.7-0.1-1c0.1-0.1,0.3-0.2,0.5-0.2c0.7,0.3,1.4,0.6,2.1,1
	c2.1,1.1,4.4,1.9,6.7,2.4c-3.1-1.7-6.4-3.6-8.4-6.6c-0.2-0.3-0.2-0.8,0.2-1c0.2-0.1,0.4-0.2,0.6-0.1c0.8,0.6,1.5,1.3,2.3,1.9
	c1.7,1.3,3.6,2.5,5.6,3.3c-2.8-2.2-5.6-4.8-7-8.2c-0.4-0.7,0.9-1.3,1.2-0.6c1.5,2.3,3.5,4.3,5.6,6c-1.9-2.8-3.6-5.8-4.1-9.2
	c0-0.4,0.3-0.7,0.7-0.7c0.1,0,0.2,0,0.3,0.1c0.3,0.1,0.4,0.4,0.5,0.7c0.9,2.5,2.1,4.8,3.8,6.9c1.8,1.8,3.9,3.2,6.2,4.2
	c1,0.5,1.3,1.7,0.8,2.7c0,0.1-0.1,0.1-0.1,0.2c-0.4,0.5-1,0.8-1.6,0.7c0-0.5-0.2-1-0.8-0.9c-0.5,0.1-0.8,0.5-0.7,1
	c0.1,0.4,0.3,0.6,0.7,0.7c2,0.3,4.1-0.3,5.6-1.5c1.3-1,2.2-2.5,2.5-4.1c0.4-1.6,0.2-3.4-0.6-4.9c-0.6-1-1.4-1.9-2.4-2.7
	c0.5-0.2,1.2-0.3,1.2-1c0.1-1.4-2.4-1.8-2.6-0.4c0.2-0.1,0.5-0.3,0.7-0.4l0.7,0.1c0.2,0.5-0.1,1-0.5,1.2c-1.1-0.2-2.2-0.6-3.4-0.7
	C38.2,60.8,38.7,59.8,39.6,59.4 M47.5,74.1c-2,1.4-3.5,3.4-4.3,5.8c-1.2,3.6-1.1,7.5,0.4,10.9c0.8-1.5,1.6-2.9,2.4-4.4
	c-0.1-0.5-0.3-1.1,0-1.5s0.8-0.7,1.1-1.2c0.7-1.4,1.4-2.8,2-4.2c0.3-0.6,1-0.6,1.4-0.9c-0.4-0.6-1-1.2-0.8-1.9
	c0.1-0.5,0.5-0.9,0.9-1.1c0-0.2-0.1-0.6-0.2-0.8l0.8-0.4l0.6,0.7l-0.4,0.6c0.9,0.8,1,2.2,0.1,3.1c0,0-0.1,0.1-0.1,0.1
	c0.6,0.1,1.3,0.4,1.8,0.7c0.3,0.4,0.5,0.8,0.6,1.2c-2.5,2.5-3.5,6.2-2.6,9.7c0.4,1.2,1.2,2.2,2.2,2.7c-0.4,0.4-0.8,0.6-1.3,0.8
	c-0.3,0.4-0.6,1-1.1,1.1s-0.5-0.6-0.5-1c-0.8-0.2-1.5-0.6-2.1-1.2c-0.7,0-1.5,0.2-2-0.4c0.3-0.2,0.5-0.4,0.8-0.6
	c-0.3-1.4-0.6-2.8-1-4.2c-0.8,1.3-1.5,2.7-2.3,4c1.2,2.4,3.3,4.2,6,4.9c2.2,0.4,4.5-0.2,6.1-1.7c2.1-2,3.5-4.6,3.9-7.5
	c0.6-3.6-0.1-7.3-2-10.4c-1.2-1.9-3-3.3-5.2-3.8C50.9,72.8,49,73.2,47.5,74.1 M49.4,82.1c-0.5,0.9-1,1.8-1.6,2.8l2.5-0.9l-0.1-1.2
	C49.9,82.6,49.7,82.3,49.4,82.1 M36.4,63.3c0.3-0.8,1.2-1.3,2.1-1c0.2,0.6-0.9,0.7-0.6,1.2c0.7,0.2,1.4-0.1,2.1,0.1
	c1.7,0.3,3.2,1.1,4.2,2.5c0.6,0.7,0.6,1.7,0,2.3c-1,1.2-2.9,1.4-4.1,0.4c0,0,0,0,0,0c0.9,0.3,1.9,0.3,2.8-0.1c0.6-0.3,1.3-0.9,1-1.7
	c-1.1-1.7-3.3-2.4-5.2-1.7c-0.7,0.3-1.4,0.8-1.9,1.4C36.2,65.7,36.1,64.4,36.4,63.3 M63.9,62.5c0.2-0.4,0.8-0.3,1.2-0.2
	c0.7,0.3,1.2,1.1,1.2,1.9c0,0.9-0.2,1.7-0.6,2.5c-0.7-0.9-1.7-1.5-2.9-1.7c-1.6-0.2-3.2,0.5-4.1,1.9c-0.3,0.7,0.4,1.4,1,1.7
	c0.9,0.4,1.9,0.5,2.8,0.1c-1.2,1.1-3,1-4.1-0.2c0-0.1-0.1-0.1-0.1-0.2c-0.6-0.6-0.6-1.6-0.1-2.3c1.1-1.5,2.9-2.5,4.8-2.6
	c0.6,0,1.3,0.2,1.8-0.2c-0.2-0.3-0.6-0.6-0.8-0.9 M40.1,66.3c1-0.5,2.3-0.3,3.1,0.4c-1,0.1-2,0.4-3,0.8c-0.6,0.6-1.3,1-2,1.3
	c-0.8,0.1-1.7-0.1-2.3-0.6c0.4-0.3,1-0.2,1.5-0.2C38.5,67.9,39.1,66.8,40.1,66.3 M59.2,66.6c0.9-0.7,2-0.8,3-0.4
	c0.7,0.5,1.4,1,2,1.5c0.7,0.3,1.5,0.4,2.3,0.4c-0.6,0.6-1.5,0.9-2.3,0.7c-1.1-0.3-1.8-1.5-2.9-1.7C60.6,66.9,59.8,67,59.2,66.6
	 M52.6,74.6l1.1-0.5v1.1c-0.3,0.3-0.7,0.7-1,1.1l-0.5-0.8C52.3,75.3,52.4,75,52.6,74.6 M54.9,80.8c0.8-0.5,1.8-0.3,2.4,0.3
	c0.8,1,1.3,2.3,1.3,3.6c0.1,2.2-0.5,4.4-1.8,6.2c-0.6,1-1.7,1.6-2.9,1.6c-1-0.3-1.8-1.1-2-2.2c-0.5-2.1-0.4-4.3,0.5-6.2
	C52.8,82.7,53.7,81.5,54.9,80.8 M54,83c0.4,0.1,0.8,0.2,1.1,0.5c0.2,0.4,0.3,0.8,0.3,1.2c-0.3-0.2-0.7-0.4-1-0.6
	c0.1,0.4,0.3,0.9,0.5,1.3c0.3-0.1,0.7-0.1,1,0.1c0.4-0.4,0.7-0.7,1-1.1c-0.4,0.1-0.8,0.2-1.1,0.3c0.2-0.8,1-1.4,1.9-1.3
	c-0.2-0.5-0.4-0.9-0.6-1.4c-0.3,0.2-0.5,0.7-1,0.6s-0.6-0.5-0.8-0.8C54.8,82.2,54.4,82.6,54,83 M53.7,84.6c-0.1,0.5-0.1,1,0.1,1.4
	L53,85.5c-0.3,1.1-0.4,2.3-0.3,3.5c0.6-0.8,1.7-1.5,1.8-2.6C54.3,85.8,54,85.1,53.7,84.6 M55.8,86.6c-0.2,1,0.6,1.7,1,2.5
	c0.4-0.9,0.6-1.9,0.8-2.9l-0.7,0.1c0.3-0.4,0.4-0.8,0.4-1.3C56.8,85.5,56.3,86,55.8,86.6 M52.9,89.9c0.1,0.8,0.9,1.7,1.7,1.4
	c0.7-0.3,1.3-0.8,1.7-1.4c-0.3-0.6-0.7-1.2-1-1.8c-0.3,0.1-0.6,0.1-0.9-0.1C53.9,88.7,53.4,89.3,52.9,89.9 M38.1,85.8
	c0.7,0,1.3,0,2,0c-0.4,1-0.8,2-1.4,3l-0.5-0.1c0.4-0.8,0.8-1.6,1.2-2.4h-1.2L38.1,85.8 M36.4,85.8h1.2v2.3H37v-1.8h-0.6L36.4,85.8
	 M62.2,86.2c0.4-0.6,1.7-0.4,1.7,0.5c0,0.5-0.5,0.7-0.9,1h1c0,0.1,0,0.4,0,0.5h-1.8v-0.5c0.4-0.3,0.8-0.6,1.1-1
	C63.4,86,62.5,86.7,62.2,86.2 M65.2,86H66v1.7h0.4c0,0.1,0,0.3,0,0.4h-0.4c0,0.2,0,0.6,0,0.8h-0.6c0-0.2,0-0.6,0-0.7h-1.3
	C64.5,87.3,64.8,86.6,65.2,86 M64.9,87.6h0.6c0-0.4,0-0.7,0-1.1L64.9,87.6 M54.4,90.4c-0.8-0.5-0.2-1.6,0.5-1.8
	C55.3,89.1,55.5,90.4,54.4,90.4 M64.1,94.3c0.5,0.1,1,0.3,1.4,0.7c0.8,0.9,0.7,2.3-0.2,3.1c-0.1,0.1-0.3,0.2-0.4,0.3
	c-1.7,0.5-3.6,0.5-5.3-0.1c0.6-0.3,1.3-0.7,1.4-1.4c-0.1-0.3-0.2-0.7-0.4-1c0.5,0,1,0.2,1.3,0.6c0.4,0.5,0,1.1-0.2,1.6
	c0.5-0.2,0.9-0.5,1.1-1c0.3-0.9-0.2-1.7-0.6-2.5c0.8,0.1,1.5,0.5,1.9,1.2c0.3,0.7,0.2,1.5-0.3,2l0.6-0.1c0.4-0.5,0.6-1.1,0.7-1.7
	C64.8,95.4,64.5,94.8,64.1,94.3 M36.9,95c0.4-0.4,0.9-0.7,1.5-0.8c-0.4,0.6-0.7,1.3-0.7,2c0.1,0.7,0.4,1.5,1.2,1.7
	c-0.4-0.5-0.5-1.2-0.4-1.9c0.4-0.8,1.1-1.3,1.9-1.4c-0.5,0.7-0.7,1.5-0.6,2.3c0.2,0.6,0.6,1,1.2,1.2c-0.2-0.5-0.6-1-0.3-1.5
	C41,96,41.5,96,42,95.9c-0.2,0.3-0.3,0.7-0.4,1c0.1,0.7,0.8,1.1,1.4,1.4c-1.7,0.6-3.5,0.6-5.2,0.1c-1.1-0.5-1.6-1.8-1.1-2.9
	C36.7,95.3,36.8,95.1,36.9,95 M41.4,101.1c-0.1-1.4,1.3-2.2,2.5-2.3c1.6,0.1,3.2,0.4,4.7,0.9c-0.2,0.8-1.1,0.9-1.8,1
	c-1.2,0-2.4,0-3.5-0.2C42.6,100.6,42,100.8,41.4,101.1 M54,99.7c1.4-0.4,2.9-0.7,4.4-0.9c1.4-0.1,2.6,0.9,2.7,2.2
	c-0.7-0.1-1.3-0.6-2-0.5c-1.5,0.1-3.2,0.6-4.6-0.1C54.2,100.3,53.7,100,54,99.7 M47.8,101.4c0.7-0.1,1.2-0.6,1.8-0.8
	c-0.1,1.3-1.4,2-2.5,2.4c-1.7,0.6-3.4,0.9-5.1,1c-0.8,0.1-1.3,0.8-2,1.3c-0.7-0.6-0.8-1.7-0.3-2.4c0.7-0.7,1.7-1.1,2.7-1.1
	C44.2,101.8,46,101.7,47.8,101.4 M53,100.6c0.5,0.3,1.1,0.6,1.7,0.8c1.8,0.3,3.6,0.5,5.3,0.5c1-0.1,2,0.3,2.8,1
	c0.6,0.7,0.5,1.8-0.2,2.5c0,0,0,0-0.1,0c-0.5-0.7-1.4-1.2-2.3-1.3c-2.1-0.1-4.1-0.6-6-1.5C53.5,102.1,53,101.4,53,100.6L53,100.6z"
    />
    <path class="st0" d="M102,60.4c2.1-1.2,4.6-0.8,6.9-0.4c0,0.7,0,1.4,0,2.1c-1.3-0.7-2.7-1-4.1-1c-1,0-1.8,0.7-2,1.6
	c0,1,0.5,1.9,1.4,2.4c1.6,1.1,3.6,1.7,4.9,3.2c1.1,1.4,1.3,3.3,0.5,4.8c-0.8,1.3-2.1,2.1-3.6,2.2c-1.8,0.2-3.6,0.1-5.3-0.5v-2.5
	c1.7,1,3.9,1.8,5.8,1.1c1.1-0.6,1.5-1.9,0.9-3c-0.1-0.2-0.2-0.4-0.4-0.5c-1.6-1.7-4.1-2.1-5.7-3.9c-1.4-1.6-1.2-4.1,0.4-5.4
	C101.8,60.6,101.9,60.5,102,60.4 M128.4,59.9c1.7,0,3.5-0.1,5.2,0.1c2.1-0.1,3.9,1.6,4,3.8c0,0.4,0,0.7-0.1,1.1
	c-0.1,1.2-0.7,2.2-1.7,2.8c-1.5,0.7-3.2,1-4.9,0.8v6.7h-2.4V59.9 M130.8,61.4V67c1.3,0,3,0.2,3.8-1.1c0.6-1.1,0.5-2.4-0.1-3.5
	C133.6,61.2,132.1,61.4,130.8,61.4 M182.6,69.3v-9.4h2.3c0,2.1,0,4.2,0,6.2c0.4-0.7,1.1-1.2,1.8-1.6c1.4-0.5,3,0,4,1.2
	c0.8,1.3,1.2,2.9,1.1,4.5c0.1,1.6-0.5,3.1-1.5,4.2c-1.3,1-3,1.4-4.6,1c-1-0.1-1.9-0.7-2.5-1.6C182.7,72.3,182.4,70.8,182.6,69.3
	 M186.4,65.9c-0.7,0.5-1.2,1.2-1.3,2.1c-0.2,1.3-0.3,2.6-0.1,3.8c0,0.8,0.3,1.7,0.9,2.3c0.8,0.6,1.9,0.5,2.5-0.3
	c0,0,0.1-0.1,0.1-0.1c1.1-2.3,1.1-4.9,0-7.2C188,65.8,187.1,65.5,186.4,65.9 M112.9,62.1c0.8-0.4,1.5-0.9,2.2-1.3v3.8h2.9v1.2h-2.9
	c0,2.1,0,4.2,0,6.3c0,0.6,0,1.4,0.6,1.8c0.7,0.3,1.4,0.3,2.1,0.1c0,0.4,0,0.9,0,1.3c-1.2,0.2-2.5,0.2-3.7-0.2
	c-0.7-0.4-1.2-1.2-1.2-2c0-2.4,0-4.8,0-7.2h-1.7v-1.2h1.7C112.9,63.8,112.9,63,112.9,62.1 M149.5,62.1c0.8-0.4,1.5-0.9,2.3-1.4v3.8
	h2.9c0,0.4,0,0.8,0,1.2h-2.9c0,2.2,0,4.4,0,6.6c-0.1,0.6,0.1,1.1,0.6,1.5c0.7,0.3,1.4,0.3,2.1,0.1c0,0.4,0,0.9,0,1.3
	c-1.3,0.3-2.8,0.2-4-0.4c-0.7-0.6-1.1-1.6-0.9-2.5v-6.6h-1.7v-1.2h1.7L149.5,62.1 M138.7,65.9c0.7-1,1.9-1.5,3.1-1.5
	c1.3-0.2,2.6,0.2,3.6,1.1c0.7,0.9,1.1,2.1,1,3.3c-2.1,0-4.2,0-6.4,0c0.1,1.8,0.6,3.8,2.1,4.9c1.2,0.8,2.8,0.8,4.1,0.2
	c0,0.4,0,0.7,0,1.1c-1.9,0.8-4,0.8-5.9-0.1c-1.5-1-2.4-2.6-2.5-4.4C137.6,68.8,137.9,67.2,138.7,65.9 M140.7,66
	c-0.4,0.5-0.6,1.1-0.7,1.7c1.4,0,2.7,0,4.1,0c0-0.6-0.2-1.2-0.6-1.7c-0.7-0.8-1.9-0.8-2.7-0.1C140.8,65.9,140.7,65.9,140.7,66
	 M156.7,66c0.7-1,1.9-1.6,3.1-1.6c1.3-0.2,2.6,0.2,3.6,1.1c0.7,0.9,1.1,2.1,1,3.3c-2.1,0-4.2,0-6.4,0c0.1,1.8,0.6,3.8,2.1,4.9
	c1.2,0.7,2.7,0.8,4,0.2c0,0.3,0,0.7,0,1c-1.8,0.8-3.9,0.8-5.7,0c-1.5-0.9-2.4-2.4-2.5-4.2C155.6,69,155.9,67.4,156.7,66 M158.8,66
	c-0.4,0.5-0.6,1.1-0.6,1.7c1.4,0,2.7,0,4.1,0c0-0.6-0.2-1.2-0.6-1.8c-0.7-0.8-2-0.8-2.7,0C158.8,65.9,158.8,65.9,158.8,66
	 M169.1,67.3c0.6-1.4,1.8-2.9,3.4-3c0,0.8,0,1.6,0,2.4c-0.9,0-1.8,0.3-2.5,0.8c-0.7,0.7-1,1.7-0.9,2.7c0,1.7,0,3.3,0,5h-2.2V64.6
	h2.3C169.1,65.5,169.1,66.4,169.1,67.3 M175.1,65c1.6-0.7,3.3-0.8,4.9-0.2c0,0.7,0,1.3,0,2c-0.8-0.6-1.8-1-2.9-1
	c-0.6,0-1.1,0.3-1.3,0.9c-0.1,0.6,0.4,1.1,0.8,1.4c1.1,0.8,2.4,1.2,3.3,2.2c0.8,1,1,2.3,0.4,3.4c-0.4,0.8-1.2,1.4-2.1,1.6
	c-1.5,0.3-3,0.2-4.5-0.2v-2.2c0.9,0.7,2,1.1,3.1,1.1c0.7,0,1.3-0.4,1.6-1c0.1-0.5-0.1-1.1-0.6-1.4c-1.1-0.9-2.6-1.4-3.5-2.5
	c-1-1.2-0.8-3,0.4-4C174.9,65.1,175,65,175.1,65 M208.5,67.3c0.6-1.4,1.8-2.8,3.4-3c0,0.8,0,1.6,0,2.4c-0.9,0-1.8,0.3-2.5,0.8
	c-0.7,0.7-1,1.7-0.9,2.6c0,1.7,0,3.3,0,5h-2.3V64.6h2.3V67.3 M213.9,65.7c0.9-1.2,2.5-1.6,3.9-1.2c0.9,0.3,1.5,1,1.9,1.9
	c0-0.6,0-1.2,0-1.7h2.2c0,3.4,0,6.8,0,10.2c0.1,1.3-0.2,2.6-0.9,3.8c-0.7,0.8-1.6,1.3-2.6,1.5c-1.6,0.2-3.2,0.1-4.7-0.3v-2.2
	c1,0.8,2.3,1.2,3.6,1.3c0.8,0,1.6-0.4,2-1.1c0.6-1.2,0.4-2.6,0.4-3.9c-1.2,2.1-4.7,1.9-5.9-0.1c-0.7-1.3-1-2.8-0.9-4.3
	C212.9,68,213.2,66.8,213.9,65.7 M216.6,66.1c-1,0.6-1.2,1.9-1.3,3c-0.2,1.4,0.1,2.8,0.7,4.1c0.5,0.8,1.6,1,2.4,0.5
	c0.2-0.1,0.3-0.2,0.4-0.4c0.5-1,0.8-2.1,0.7-3.2c0.1-1.2-0.2-2.4-0.7-3.4C218.3,65.8,217.4,65.6,216.6,66.1 M194.3,64.6h2.3v6.8
	c-0.1,0.7,0.2,1.4,0.6,2c0.7,0.4,1.6,0.2,2.1-0.4c0.9-1,1.3-2.3,1.4-3.6c0.1-1.6,0-3.3,0-4.9h2.2v10.6h-2.3c0-0.8,0-1.7,0-2.5
	c-0.4,1-1.2,1.9-2.1,2.4c-1,0.5-2.3,0.5-3.2-0.2c-0.7-0.7-1.1-1.7-1-2.7C194.3,69.7,194.3,67.2,194.3,64.6 M100.4,83.5h2.5
	c0,3.6,0,7.1,0,10.7c0,1.1,0.1,2.5,1.2,3.2c1.1,0.6,2.4,0.5,3.3-0.2c0.7-0.8,1-1.9,0.9-3c0-3.6,0-7.1,0-10.7h2.5c0,3.3,0,6.7,0,10
	c0,1.5-0.2,3.3-1.3,4.4c-1.2,0.9-2.7,1.3-4.2,1.2c-1.4,0.1-2.9-0.4-3.8-1.5c-0.8-1.3-1.1-2.8-1-4.3
	C100.4,90.1,100.4,86.8,100.4,83.5 M126,83.5h2.4v2.2H126L126,83.5 M167.8,83.5h2.4c0,0.7,0,1.5,0,2.2h-2.4V83.5 M174.2,85.8
	l2.3-1.4v3.8h2.9v1.2h-2.9c0,2.2,0,4.3,0,6.5c-0.1,0.6,0.1,1.2,0.6,1.6c0.6,0.2,1.3,0.3,2,0.1c0,0.4,0,0.9,0,1.3
	c-1.3,0.3-2.6,0.2-3.8-0.3c-0.8-0.5-1.2-1.4-1.1-2.3c0-2.3,0-4.6,0-6.9h-1.7c0-0.4,0-0.8,0-1.2h1.7
	C174.2,87.5,174.2,86.6,174.2,85.8 M118.1,88.6c0.9-0.6,2.1-0.7,3.1-0.3c1,0.6,1.5,1.7,1.5,2.8c0,2.6,0,5.2,0,7.8h-2.3
	c0-2.4,0-4.8,0-7.1c0-0.7-0.2-1.7-0.9-2c-1.1-0.1-2.2,0.5-2.5,1.6c-1.1,2.3-0.6,5-0.7,7.5H114V88.2h2.2c0,0.8,0,1.7,0,2.5
	C116.7,89.9,117.3,89.1,118.1,88.6 M141.4,90.2c0.6-1.2,1.7-2,3.1-2.1c1.4-0.3,2.8,0.1,3.9,0.9c0.8,0.9,1.2,2.1,1.1,3.3h-6.3
	c-0.1,1.9,0.7,3.7,2.1,4.9c1.2,0.8,2.8,0.8,4.1,0.2c0,0.3,0,0.7,0,1c-1.7,0.7-3.6,0.8-5.3,0.2c-1.5-0.6-2.6-2-2.9-3.7
	C140.6,93.4,140.8,91.7,141.4,90.2 M143.8,89.5c-0.4,0.5-0.7,1.1-0.7,1.7h4.1c0-0.6-0.2-1.2-0.6-1.7
	C145.9,88.7,144.7,88.7,143.8,89.5C143.9,89.4,143.9,89.5,143.8,89.5 M160.1,88.5c1.5-0.7,3.3-0.8,4.9-0.2v2c-1-0.7-2.4-1.4-3.6-0.8
	c-0.5,0.2-0.7,0.8-0.5,1.3c0.1,0.1,0.2,0.3,0.3,0.4c1.1,1,2.7,1.4,3.7,2.6c0.8,1,1,2.3,0.5,3.5c-0.5,0.9-1.3,1.5-2.2,1.6
	c-1.4,0.3-2.9,0.2-4.3-0.3c0-0.7,0-1.4,0-2.1c0.9,0.7,1.9,1.1,3,1.1c0.7,0.1,1.4-0.3,1.7-1c0.1-0.6-0.2-1.2-0.7-1.4
	c-1.1-0.8-2.5-1.3-3.4-2.4c-1-1.2-0.8-3,0.4-4C159.9,88.7,160,88.6,160.1,88.5 M126.1,88.2h2.2c0,3.5,0,7.1,0,10.6h-2.3L126.1,88.2
	 M130.1,88.2h2.4l2.7,7.6c0.8-2.5,1.7-5,2.5-7.6h2.1c-1.2,3.5-2.5,7.1-3.7,10.6h-2C132.8,95.2,131.5,91.7,130.1,88.2 M154.1,90.9
	c0.6-1.4,1.7-2.8,3.4-3c0,0.8,0,1.6,0,2.4c-0.9,0-1.7,0.2-2.4,0.7c-0.7,0.7-1.1,1.6-1,2.6c0,1.7,0,3.4,0,5.1h-2.3
	c0-3.5,0-7.1,0-10.6h2.3C154.2,89,154.2,89.9,154.1,90.9 M167.9,88.3h2.3v10.6h-2.3V88.3 M179.7,88.3h2.4c0.9,2.5,1.9,5,2.8,7.6
	c0.8-2.5,1.6-5,2.5-7.6h2.1c-1.8,5.1-3.6,10.2-5.4,15.3h-1.8c0.5-1.6,1.1-3.1,1.5-4.7C182.5,95.4,181.1,91.8,179.7,88.3"/>
</svg>
