<?xml version="1.0" encoding="UTF-8"?>
<svg version="1.1" xmlns="http://www.w3.org/2000/svg" width="256" height="256">
    <rect
            x="0"
            y="0"
            width="256"
            height="256"
            rx="32"
            ry="32"
            fill="#9F2D20"
    />
    <path d="M0 0 C1.80815186 0.00737183 1.80815186 0.00737183 3.65283203 0.01489258 C29.39309138 0.35408372 51.1826899 11.00705733 69.41015625 28.78515625 C77.49060557 37.30912937 83.58811405 47.39662456 87.875 58.3125 C88.14957031 58.96476562 88.42414063 59.61703125 88.70703125 60.2890625 C97.119358 81.0919592 94.51730136 106.20553021 86.5 126.625 C85.64721266 128.53092833 84.77270801 130.42731318 83.875 132.3125 C83.24851563 133.66214844 83.24851563 133.66214844 82.609375 135.0390625 C71.51617245 157.16171356 51.11295134 171.46140882 28.1171875 179.24609375 C19.1221688 182.05200257 10.69952998 182.52303797 1.3125 182.5625 C0.11302734 182.583125 -1.08644531 182.60375 -2.32226562 182.625 C-26.30046818 182.72852165 -46.95713414 171.97575694 -63.9765625 155.5625 C-81.35207592 137.9012149 -89.26747669 114.59529084 -89.375 90.1875 C-89.395625 89.04023437 -89.41625 87.89296875 -89.4375 86.7109375 C-89.54472357 62.90730456 -78.50743284 42.37799344 -62.5 25.3125 C-50.84959192 14.04967889 -36.82080217 6.31578391 -21.125 2.3125 C-19.97902344 1.96316406 -18.83304687 1.61382812 -17.65234375 1.25390625 C-11.83927903 -0.18461542 -5.95517146 -0.02840501 0 0 Z "
          fill="#FDFDFD" transform="translate(126.125,36.6875)"/>
    <path d="M0 0 C0.88107422 -0.00322266 1.76214844 -0.00644531 2.66992188 -0.00976562 C18.40407105 0.11796548 29.39270943 6.24766444 40.4375 17.3125 C49.85815538 26.94565137 54.03601939 39.20487014 53.9375 52.5 C53.93177979 53.40983643 53.92605957 54.31967285 53.92016602 55.25708008 C53.50832877 71.01366812 46.98667492 83.6671154 35.5859375 94.5 C25.03983074 103.39707916 13.34106589 106.63750901 -0.25 106.75 C-1.11665283 106.76015137 -1.98330566 106.77030273 -2.8762207 106.78076172 C-16.49882014 106.59721403 -28.14626519 100.8501882 -37.9375 91.5 C-48.51843482 80.24080012 -52.87306176 67.96156972 -53 52.625 C-53.01015137 51.75834717 -53.02030273 50.89169434 -53.03076172 49.9987793 C-52.84797425 36.43260196 -47.12970817 24.8052294 -37.875 15 C-27.00719498 4.74237523 -14.84726663 -0.27272716 0 0 Z "
          fill="#9F2D20" transform="translate(127.5625,74.6875)"/>
</svg>
