<?xml version="1.0" encoding="UTF-8" standalone="yes"?>
<svg xmlns="http://www.w3.org/2000/svg" xmlns:xlink="http://www.w3.org/1999/xlink" contentstyletype="text/css" data-diagram-type="SEQUENCE" height="955px" preserveAspectRatio="none" style="width:1014px;height:955px;background:#FFFFFF;" version="1.1" viewBox="0 0 1014 955" width="1014px" zoomAndPan="magnify" xmlns:xhtml="http://www.w3.org/1999/xhtml"><style>
             .markmap-foreign div { color: #333 !important; }
             .markmap-foreign strong { font-weight: bold !important; }
             .markmap-foreign table { border-collapse: collapse !important; }
             .markmap-foreign th, .markmap-foreign td { border: 1px solid #333 !important; padding: 3px !important; }
             .markmap-node > circle { fill: #fff !important; }</style><title>Угроза 1: Подмена телеметрии (Spoofing)</title><defs></defs><g><text fill="#000000" font-family="sans-serif" font-size="14" font-weight="bold" lengthAdjust="spacing" textLength="341.9336" x="332.1025" y="27.9951">Угроза 1: Подмена телеметрии (Spoofing)</text><g class="participant-lifeline" data-entity-uid="part1" data-qualified-name="Attacker" id="part1-lifeline"><g><title>.............</title><rect fill="#000000" fill-opacity="0.00000" height="755.8516" width="8" x="65.3115" y="118.5938"></rect><line style="stroke:#181818;stroke-width:0.5;stroke-dasharray:5,5;" x1="69" x2="69" y1="118.5938" y2="874.4453"></line></g></g><g class="participant-lifeline" data-entity-uid="part2" data-qualified-name="Nginx" id="part2-lifeline"><g><title>Nginx</title><rect fill="#000000" fill-opacity="0.00000" height="755.8516" width="8" x="318.5698" y="118.5938"></rect><line style="stroke:#181818;stroke-width:0.5;stroke-dasharray:5,5;" x1="322.3662" x2="322.3662" y1="118.5938" y2="874.4453"></line></g></g><g class="participant-lifeline" data-entity-uid="part3" data-qualified-name="Backend" id="part3-lifeline"><g><title>FastAPI Backend</title><rect fill="#000000" fill-opacity="0.00000" height="755.8516" width="8" x="476.6577" y="118.5938"></rect><line style="stroke:#181818;stroke-width:0.5;stroke-dasharray:5,5;" x1="480.4702" x2="480.4702" y1="118.5938" y2="874.4453"></line></g></g><g class="participant-lifeline" data-entity-uid="part4" data-qualified-name="ES" id="part4-lifeline"><g><title>ElasticSearch</title><rect fill="#000000" fill-opacity="0.00000" height="755.8516" width="8" x="713.2954" y="118.5938"></rect><line style="stroke:#181818;stroke-width:0.5;stroke-dasharray:5,5;" x1="717.2505" x2="717.2505" y1="118.5938" y2="874.4453"></line></g></g><g class="participant-lifeline" data-entity-uid="part5" data-qualified-name="Operator" id="part5-lifeline"><g><title>........</title><rect fill="#000000" fill-opacity="0.00000" height="755.8516" width="8" x="812.27" y="118.5938"></rect><line style="stroke:#181818;stroke-width:0.5;stroke-dasharray:5,5;" x1="815.3403" x2="815.3403" y1="118.5938" y2="874.4453"></line></g></g><g class="participant participant-head" data-entity-uid="part1" data-qualified-name="Attacker" id="part1-head"><text fill="#000000" font-family="sans-serif" font-size="14" lengthAdjust="spacing" textLength="122.623" x="5" y="115.292">Злоумышленник</text><ellipse cx="69.3115" cy="50.7969" fill="#FF0000" rx="8" ry="8" style="stroke:#181818;stroke-width:0.5;"></ellipse><path d="M69.3115,58.7969 L69.3115,85.7969 M56.3115,66.7969 L82.3115,66.7969 M69.3115,85.7969 L56.3115,100.7969 M69.3115,85.7969 L82.3115,100.7969" fill="none" style="stroke:#181818;stroke-width:0.5;"></path></g><g class="participant participant-tail" data-entity-uid="part1" data-qualified-name="Attacker" id="part1-tail"><text fill="#000000" font-family="sans-serif" font-size="14" lengthAdjust="spacing" textLength="122.623" x="5" y="886.4404">Злоумышленник</text><ellipse cx="69.3115" cy="898.2422" fill="#FF0000" rx="8" ry="8" style="stroke:#181818;stroke-width:0.5;"></ellipse><path d="M69.3115,906.2422 L69.3115,933.2422 M56.3115,914.2422 L82.3115,914.2422 M69.3115,933.2422 L56.3115,948.2422 M69.3115,933.2422 L82.3115,948.2422" fill="none" style="stroke:#181818;stroke-width:0.5;"></path></g><g class="participant participant-head" data-entity-uid="part2" data-qualified-name="Nginx" id="part2-head"><rect fill="#E2E2F0" height="30.2969" rx="2.5" ry="2.5" style="stroke:#181818;stroke-width:0.5;" width="54.4072" x="295.3662" y="87.2969"></rect><text fill="#000000" font-family="sans-serif" font-size="14" lengthAdjust="spacing" textLength="40.4072" x="302.3662" y="107.292">Nginx</text></g><g class="participant participant-tail" data-entity-uid="part2" data-qualified-name="Nginx" id="part2-tail"><rect fill="#E2E2F0" height="30.2969" rx="2.5" ry="2.5" style="stroke:#181818;stroke-width:0.5;" width="54.4072" x="295.3662" y="873.4453"></rect><text fill="#000000" font-family="sans-serif" font-size="14" lengthAdjust="spacing" textLength="40.4072" x="302.3662" y="893.4404">Nginx</text></g><g class="participant participant-head" data-entity-uid="part3" data-qualified-name="Backend" id="part3-head"><rect fill="#E2E2F0" height="30.2969" rx="2.5" ry="2.5" style="stroke:#181818;stroke-width:0.5;" width="130.375" x="415.4702" y="87.2969"></rect><text fill="#000000" font-family="sans-serif" font-size="14" lengthAdjust="spacing" textLength="116.375" x="422.4702" y="107.292">FastAPI Backend</text></g><g class="participant participant-tail" data-entity-uid="part3" data-qualified-name="Backend" id="part3-tail"><rect fill="#E2E2F0" height="30.2969" rx="2.5" ry="2.5" style="stroke:#181818;stroke-width:0.5;" width="130.375" x="415.4702" y="873.4453"></rect><text fill="#000000" font-family="sans-serif" font-size="14" lengthAdjust="spacing" textLength="116.375" x="422.4702" y="893.4404">FastAPI Backend</text></g><g class="participant participant-head" data-entity-uid="part4" data-qualified-name="ES" id="part4-head"><text fill="#000000" font-family="sans-serif" font-size="14" lengthAdjust="spacing" textLength="94.0898" x="667.2505" y="115.292">ElasticSearch</text><path d="M699.2954,66.2969 C699.2954,56.2969 717.2954,56.2969 717.2954,56.2969 C717.2954,56.2969 735.2954,56.2969 735.2954,66.2969 L735.2954,92.2969 C735.2954,102.2969 717.2954,102.2969 717.2954,102.2969 C717.2954,102.2969 699.2954,102.2969 699.2954,92.2969 L699.2954,66.2969" fill="#E2E2F0" style="stroke:#181818;stroke-width:0.5;"></path><path d="M699.2954,66.2969 C699.2954,76.2969 717.2954,76.2969 717.2954,76.2969 C717.2954,76.2969 735.2954,76.2969 735.2954,66.2969" fill="none" style="stroke:#181818;stroke-width:0.5;"></path></g><g class="participant participant-tail" data-entity-uid="part4" data-qualified-name="ES" id="part4-tail"><text fill="#000000" font-family="sans-serif" font-size="14" lengthAdjust="spacing" textLength="94.0898" x="667.2505" y="886.4404">ElasticSearch</text><path d="M699.2954,899.7422 C699.2954,889.7422 717.2954,889.7422 717.2954,889.7422 C717.2954,889.7422 735.2954,889.7422 735.2954,899.7422 L735.2954,925.7422 C735.2954,935.7422 717.2954,935.7422 717.2954,935.7422 C717.2954,935.7422 699.2954,935.7422 699.2954,925.7422 L699.2954,899.7422" fill="#E2E2F0" style="stroke:#181818;stroke-width:0.5;"></path><path d="M699.2954,899.7422 C699.2954,909.7422 717.2954,909.7422 717.2954,909.7422 C717.2954,909.7422 735.2954,909.7422 735.2954,899.7422" fill="none" style="stroke:#181818;stroke-width:0.5;"></path></g><g class="participant participant-head" data-entity-uid="part5" data-qualified-name="Operator" id="part5-head"><text fill="#000000" font-family="sans-serif" font-size="14" lengthAdjust="spacing" textLength="71.8594" x="777.3403" y="115.292">Оператор</text><ellipse cx="816.27" cy="50.7969" fill="#E2E2F0" rx="8" ry="8" style="stroke:#181818;stroke-width:0.5;"></ellipse><path d="M816.27,58.7969 L816.27,85.7969 M803.27,66.7969 L829.27,66.7969 M816.27,85.7969 L803.27,100.7969 M816.27,85.7969 L829.27,100.7969" fill="none" style="stroke:#181818;stroke-width:0.5;"></path></g><g class="participant participant-tail" data-entity-uid="part5" data-qualified-name="Operator" id="part5-tail"><text fill="#000000" font-family="sans-serif" font-size="14" lengthAdjust="spacing" textLength="71.8594" x="777.3403" y="886.4404">Оператор</text><ellipse cx="816.27" cy="898.2422" fill="#E2E2F0" rx="8" ry="8" style="stroke:#181818;stroke-width:0.5;"></ellipse><path d="M816.27,906.2422 L816.27,933.2422 M803.27,914.2422 L829.27,914.2422 M816.27,933.2422 L803.27,948.2422 M816.27,933.2422 L829.27,948.2422" fill="none" style="stroke:#181818;stroke-width:0.5;"></path></g><rect fill="#EEEEEE" height="3" style="stroke:#EEEEEE;stroke-width:1;" width="1007.1387" x="0" y="149.1602"></rect><line style="stroke:#000000;stroke-width:1;" x1="0" x2="1007.1387" y1="149.1602" y2="149.1602"></line><line style="stroke:#000000;stroke-width:1;" x1="0" x2="1007.1387" y1="152.1602" y2="152.1602"></line><rect fill="#EEEEEE" height="23.1328" style="stroke:#000000;stroke-width:2;" width="332.2969" x="337.4209" y="138.5938"></rect><text fill="#000000" font-family="sans-serif" font-size="13" font-weight="bold" lengthAdjust="spacing" textLength="313.771" x="343.4209" y="154.6606">Атака: отправка поддельной телеметрии</text><g class="message" data-entity-1="part1" data-entity-2="part1" id="msg1"><line style="stroke:#181818;stroke-width:1;" x1="69.3115" x2="111.3115" y1="207.9922" y2="207.9922"></line><line style="stroke:#181818;stroke-width:1;" x1="111.3115" x2="111.3115" y1="207.9922" y2="220.9922"></line><line style="stroke:#181818;stroke-width:1;" x1="70.3115" x2="111.3115" y1="220.9922" y2="220.9922"></line><polygon fill="#181818" points="80.3115,216.9922,70.3115,220.9922,80.3115,224.9922,76.3115,220.9922" style="stroke:#181818;stroke-width:1;"></polygon><text fill="#000000" font-family="sans-serif" font-size="13" lengthAdjust="spacing" textLength="146.4976" x="76.3115" y="187.7935">Получение API-ключа</text><text fill="#000000" font-family="sans-serif" font-size="13" lengthAdjust="spacing" textLength="186.7417" x="76.3115" y="202.9263">(утечка, подбор, перехват)</text></g><g class="message" data-entity-1="part1" data-entity-2="part2" id="msg2"><polygon fill="#181818" points="310.5698,321.7891,320.5698,325.7891,310.5698,329.7891,314.5698,325.7891" style="stroke:#181818;stroke-width:1;"></polygon><line style="stroke:#181818;stroke-width:1;" x1="69.3115" x2="316.5698" y1="325.7891" y2="325.7891"></line><text fill="#000000" font-family="sans-serif" font-size="13" lengthAdjust="spacing" textLength="154.686" x="76.3115" y="245.0591">POST /api/log/telemetry</text><text fill="#000000" font-family="sans-serif" font-size="13" lengthAdjust="spacing" textLength="229.2583" x="76.3115" y="260.1919">[X-API-Key: &lt;украденный_ключ&gt;]</text><text fill="#000000" font-family="sans-serif" font-size="13" lengthAdjust="spacing" textLength="174.3384" x="76.3115" y="275.3247">[Body: [{drone: "delivery",</text><text fill="#000000" font-family="sans-serif" font-size="13" lengthAdjust="spacing" textLength="77.0669" x="80.4438" y="290.4575">drone_id: 1,</text><text fill="#000000" font-family="sans-serif" font-size="13" lengthAdjust="spacing" textLength="107.25" x="80.4438" y="305.5903">lat: 0.0, lon: 0.0,</text><text fill="#000000" font-family="sans-serif" font-size="13" lengthAdjust="spacing" textLength="99.1885" x="80.4438" y="320.7231">battery: 100}]]</text></g><g class="message" data-entity-1="part2" data-entity-2="part3" id="msg3"><polygon fill="#181818" points="468.6577,350.9219,478.6577,354.9219,468.6577,358.9219,472.6577,354.9219" style="stroke:#181818;stroke-width:1;"></polygon><line style="stroke:#181818;stroke-width:1;" x1="322.5698" x2="474.6577" y1="354.9219" y2="354.9219"></line><text fill="#000000" font-family="sans-serif" font-size="13" lengthAdjust="spacing" textLength="106.209" x="329.5698" y="349.856">Проксирование</text></g><g class="message" data-entity-1="part3" data-entity-2="part3" id="msg4"><line style="stroke:#181818;stroke-width:1;" x1="480.6577" x2="522.6577" y1="399.1875" y2="399.1875"></line><line style="stroke:#181818;stroke-width:1;" x1="522.6577" x2="522.6577" y1="399.1875" y2="412.1875"></line><line style="stroke:#181818;stroke-width:1;" x1="481.6577" x2="522.6577" y1="412.1875" y2="412.1875"></line><polygon fill="#181818" points="491.6577,408.1875,481.6577,412.1875,491.6577,416.1875,487.6577,412.1875" style="stroke:#181818;stroke-width:1;"></polygon><text fill="#000000" font-family="sans-serif" font-size="13" lengthAdjust="spacing" textLength="137.8521" x="487.6577" y="378.9888">Проверка API-ключа</text><text fill="#000000" font-family="sans-serif" font-size="13" lengthAdjust="spacing" textLength="185.4468" x="487.6577" y="394.1216">(ключ валиден — украден)</text></g><g class="message" data-entity-1="part3" data-entity-2="part3" id="msg5"><line style="stroke:#181818;stroke-width:1;" x1="480.6577" x2="522.6577" y1="456.4531" y2="456.4531"></line><line style="stroke:#181818;stroke-width:1;" x1="522.6577" x2="522.6577" y1="456.4531" y2="469.4531"></line><line style="stroke:#181818;stroke-width:1;" x1="481.6577" x2="522.6577" y1="469.4531" y2="469.4531"></line><polygon fill="#181818" points="491.6577,465.4531,481.6577,469.4531,491.6577,473.4531,487.6577,469.4531" style="stroke:#181818;stroke-width:1;"></polygon><text fill="#000000" font-family="sans-serif" font-size="13" lengthAdjust="spacing" textLength="135.6938" x="487.6577" y="436.2544">Валидация Pydantic</text><text fill="#000000" font-family="sans-serif" font-size="13" lengthAdjust="spacing" textLength="222.6377" x="487.6577" y="451.3872">(данные формально корректны)</text></g><g class="message" data-entity-1="part3" data-entity-2="part4" id="msg6"><polygon fill="#181818" points="705.2954,509.7188,715.2954,513.7188,705.2954,517.7188,709.2954,513.7188" style="stroke:#181818;stroke-width:1;"></polygon><line style="stroke:#181818;stroke-width:1;" x1="480.6577" x2="711.2954" y1="513.7188" y2="513.7188"></line><text fill="#000000" font-family="sans-serif" font-size="13" lengthAdjust="spacing" textLength="150.2617" x="487.6577" y="493.52">Сохранение ЛОЖНОЙ</text><text fill="#000000" font-family="sans-serif" font-size="13" lengthAdjust="spacing" textLength="150.7632" x="487.6577" y="508.6528">телеметрии в журнал</text></g><g class="message" data-entity-1="part4" data-entity-2="part3" id="msg7"><polygon fill="#181818" points="491.6577,538.8516,481.6577,542.8516,491.6577,546.8516,487.6577,542.8516" style="stroke:#181818;stroke-width:1;"></polygon><line style="stroke:#181818;stroke-width:1;stroke-dasharray:2,2;" x1="485.6577" x2="716.2954" y1="542.8516" y2="542.8516"></line><text fill="#000000" font-family="sans-serif" font-size="13" lengthAdjust="spacing" textLength="18.7573" x="497.6577" y="537.7856">OK</text></g><g class="message" data-entity-1="part3" data-entity-2="part2" id="msg8"><polygon fill="#181818" points="333.5698,567.9844,323.5698,571.9844,333.5698,575.9844,329.5698,571.9844" style="stroke:#181818;stroke-width:1;"></polygon><line style="stroke:#181818;stroke-width:1;stroke-dasharray:2,2;" x1="327.5698" x2="479.6577" y1="571.9844" y2="571.9844"></line><text fill="#000000" font-family="sans-serif" font-size="13" lengthAdjust="spacing" textLength="134.0879" x="339.5698" y="566.9185">200 {"accepted": 1}</text></g><g class="message" data-entity-1="part2" data-entity-2="part1" id="msg9"><polygon fill="#181818" points="80.3115,597.1172,70.3115,601.1172,80.3115,605.1172,76.3115,601.1172" style="stroke:#181818;stroke-width:1;"></polygon><line style="stroke:#181818;stroke-width:1;stroke-dasharray:2,2;" x1="74.3115" x2="321.5698" y1="601.1172" y2="601.1172"></line><text fill="#000000" font-family="sans-serif" font-size="13" lengthAdjust="spacing" textLength="24.813" x="86.3115" y="596.0513">200</text></g><rect fill="#EEEEEE" height="3" style="stroke:#EEEEEE;stroke-width:1;" width="1007.1387" x="0" y="629.6836"></rect><line style="stroke:#000000;stroke-width:1;" x1="0" x2="1007.1387" y1="629.6836" y2="629.6836"></line><line style="stroke:#000000;stroke-width:1;" x1="0" x2="1007.1387" y1="632.6836" y2="632.6836"></line><rect fill="#EEEEEE" height="23.1328" style="stroke:#000000;stroke-width:2;" width="115.8037" x="445.6675" y="619.1172"></rect><text fill="#000000" font-family="sans-serif" font-size="13" font-weight="bold" lengthAdjust="spacing" textLength="97.2778" x="451.6675" y="635.1841">Последствия</text><g class="message" data-entity-1="part5" data-entity-2="part3" id="msg10"><polygon fill="#181818" points="491.6577,669.3828,481.6577,673.3828,491.6577,677.3828,487.6577,673.3828" style="stroke:#181818;stroke-width:1;"></polygon><line style="stroke:#181818;stroke-width:1;" x1="485.6577" x2="815.27" y1="673.3828" y2="673.3828"></line><text fill="#000000" font-family="sans-serif" font-size="13" lengthAdjust="spacing" textLength="134.6909" x="497.6577" y="668.3169">Запрос телеметрии</text></g><g class="message" data-entity-1="part3" data-entity-2="part4" id="msg11"><polygon fill="#181818" points="705.2954,698.5156,715.2954,702.5156,705.2954,706.5156,709.2954,702.5156" style="stroke:#181818;stroke-width:1;"></polygon><line style="stroke:#181818;stroke-width:1;" x1="480.6577" x2="711.2954" y1="702.5156" y2="702.5156"></line><text fill="#000000" font-family="sans-serif" font-size="13" lengthAdjust="spacing" textLength="104.1968" x="487.6577" y="697.4497">Запрос данных</text></g><g class="message" data-entity-1="part4" data-entity-2="part3" id="msg12"><polygon fill="#181818" points="491.6577,727.6484,481.6577,731.6484,491.6577,735.6484,487.6577,731.6484" style="stroke:#181818;stroke-width:1;"></polygon><line style="stroke:#181818;stroke-width:1;stroke-dasharray:2,2;" x1="485.6577" x2="716.2954" y1="731.6484" y2="731.6484"></line><text fill="#000000" font-family="sans-serif" font-size="13" lengthAdjust="spacing" textLength="169.9141" x="497.6577" y="726.5825">Включая ложные записи</text></g><g class="message" data-entity-1="part3" data-entity-2="part5" id="msg13"><polygon fill="#181818" points="804.27,771.9141,814.27,775.9141,804.27,779.9141,808.27,775.9141" style="stroke:#181818;stroke-width:1;"></polygon><line style="stroke:#181818;stroke-width:1;stroke-dasharray:2,2;" x1="480.6577" x2="810.27" y1="775.9141" y2="775.9141"></line><text fill="#000000" font-family="sans-serif" font-size="13" lengthAdjust="spacing" textLength="144.0854" x="487.6577" y="755.7153">Ложные координаты</text><text fill="#000000" font-family="sans-serif" font-size="13" lengthAdjust="spacing" textLength="152.1279" x="487.6577" y="770.8481">дрона на инфопанели</text></g><path d="M821,788.9141 L821,858.9141 L1002,858.9141 L1002,798.9141 L992,788.9141 L821,788.9141" fill="#FFC0CB" style="stroke:#181818;stroke-width:0.5;"></path><path d="M992,788.9141 L992,798.9141 L1002,798.9141 L992,788.9141" fill="#FFC0CB" style="stroke:#181818;stroke-width:0.5;"></path><text fill="#000000" font-family="sans-serif" font-size="13" lengthAdjust="spacing" textLength="149.8047" x="827" y="805.981">Оператор видит дрон</text><text fill="#000000" font-family="sans-serif" font-size="13" lengthAdjust="spacing" textLength="160.1387" x="827" y="821.1138">в неправильном месте.</text><text fill="#000000" font-family="sans-serif" font-size="13" lengthAdjust="spacing" textLength="139.3818" x="827" y="836.2466">Возможно принятие</text><text fill="#000000" font-family="sans-serif" font-size="13" lengthAdjust="spacing" textLength="148.2114" x="827" y="851.3794">ошибочных решений.</text><!--?plantuml-src TLJjIXj15Fq_Jt69VnICnluCZQ1WeGXLI7yKZCYwkyR5T3UiGsaG8SPQ1KijKYgbjANq1T8qiMk-V8MPL-YJzDpPR68qHGopC-VEFVVSCrTwikII-gb-wwhggp-gJWjPKj-nRggkQgaUTdGDYmx-iQ5h04OgekbyEGXsFByu8uHboo2abBe2gg-FLLUVwpCJqSDVfDefilPfIKhBtdD3cWfTHvIjK7gsLxPyIQbdHSz_RK1cDNxunDgNI-jFQPcZVSV01clXMDBQjlPTIgsK0FFil6k5zgx1hEI7nBwfMr2lgZfAwUkgELuhkw65Oo5oEL8VS59NRLL7zNsiRncj6hn326Ovcgo2VeUA-kfciYYvd133CjEBev87cdRqiJuriaIgHIWgZGGT_HwRzO8_ZLFSYWzadKtI_cB6veihQEaJi48TC-EPZ6v8ixwMVqxpLjcRBmN5UUcMt9Uk32i5V-D5clEjkfKiFKQFsgR0PjmZVQvkjX8gYvj0BmSEW1i7JXZuRfPIZbloNhbX9JLRyCbiRdbEbXRuisJ9B6NcChDK2lnuXTrjIqe409F976vk2X5J1DT1yumendPjVQGYiq9fiJX29AX90GsZ1VVcWOR91vcxEhZBr4X_gnzflEoP_-Mu70RMzLiGkw3rYWChUZRVtpGKMR8MwJVS75YWdZY3a1zRt2dagZ5kFCzAdbFy0EZ4KEaDxQ2-mAUVr5VyVYxu4_sb6gIkuP8glqlL4GAtfSV8hwsEajsnnQDCXWvIbcsxPUawAJJbCEd7k4q1Z1y4x8gkC86cFWAPXX623Puyd7kgNO4Hlng4JNmS3qMu6p6ILPyyh0ej6VOOB7ZCgEj13tXeuN54x24nLloGQ9QrlHE15fc-DS6hnuz9dnTyrCdMue4N_-2C-ukxuovr-7u_a2w5Nd5NKh0poZ1LzlmzGNH_qh0BsKYHhb6IW64DCbScKoOQ3fOk6SrOyTOS8o_DMEx6zDbVjqREdhu0X1yAyS0wmv87nMci89b9SJQmrisSO4cOklW7?--></g></svg>