<?xml version="1.0" encoding="UTF-8" standalone="yes"?>
<svg xmlns="http://www.w3.org/2000/svg" xmlns:xlink="http://www.w3.org/1999/xlink" contentstyletype="text/css" data-diagram-type="SEQUENCE" height="954px" preserveAspectRatio="none" style="width:816px;height:954px;background:#FFFFFF;" version="1.1" viewBox="0 0 816 954" width="816px" zoomAndPan="magnify" xmlns:xhtml="http://www.w3.org/1999/xhtml"><style>
             .markmap-foreign div { color: #333 !important; }
             .markmap-foreign strong { font-weight: bold !important; }
             .markmap-foreign table { border-collapse: collapse !important; }
             .markmap-foreign th, .markmap-foreign td { border: 1px solid #333 !important; padding: 3px !important; }
             .markmap-node > circle { fill: #fff !important; }</style><title>Угроза 2: Компрометация JWT-секрета (Elevation of Privilege)</title><defs></defs><g><text fill="#000000" font-family="sans-serif" font-size="14" font-weight="bold" lengthAdjust="spacing" textLength="501.5049" x="153.5798" y="27.9951">Угроза 2: Компрометация JWT-секрета (Elevation of Privilege)</text><g class="participant-lifeline" data-entity-uid="part1" data-qualified-name="Attacker" id="part1-lifeline"><g><title>.............</title><rect fill="#000000" fill-opacity="0.00000" height="754.8516" width="8" x="65.3115" y="118.5938"></rect><line style="stroke:#181818;stroke-width:0.5;stroke-dasharray:5,5;" x1="69" x2="69" y1="118.5938" y2="873.4453"></line></g></g><g class="participant-lifeline" data-entity-uid="part2" data-qualified-name="Nginx" id="part2-lifeline"><g><title>Nginx</title><rect fill="#000000" fill-opacity="0.00000" height="754.8516" width="8" x="396.5127" y="118.5938"></rect><line style="stroke:#181818;stroke-width:0.5;stroke-dasharray:5,5;" x1="400.3091" x2="400.3091" y1="118.5938" y2="873.4453"></line></g></g><g class="participant-lifeline" data-entity-uid="part3" data-qualified-name="Backend" id="part3-lifeline"><g><title>FastAPI Backend</title><rect fill="#000000" fill-opacity="0.00000" height="754.8516" width="8" x="543.7651" y="118.5938"></rect><line style="stroke:#181818;stroke-width:0.5;stroke-dasharray:5,5;" x1="547.5776" x2="547.5776" y1="118.5938" y2="873.4453"></line></g></g><g class="participant-lifeline" data-entity-uid="part4" data-qualified-name="ES" id="part4-lifeline"><g><title>ElasticSearch</title><rect fill="#000000" fill-opacity="0.00000" height="754.8516" width="8" x="750.6196" y="118.5938"></rect><line style="stroke:#181818;stroke-width:0.5;stroke-dasharray:5,5;" x1="754.5747" x2="754.5747" y1="118.5938" y2="873.4453"></line></g></g><g class="participant participant-head" data-entity-uid="part1" data-qualified-name="Attacker" id="part1-head"><text fill="#000000" font-family="sans-serif" font-size="14" lengthAdjust="spacing" textLength="122.623" x="5" y="115.292">Злоумышленник</text><ellipse cx="69.3115" cy="50.7969" fill="#FF0000" rx="8" ry="8" style="stroke:#181818;stroke-width:0.5;"></ellipse><path d="M69.3115,58.7969 L69.3115,85.7969 M56.3115,66.7969 L82.3115,66.7969 M69.3115,85.7969 L56.3115,100.7969 M69.3115,85.7969 L82.3115,100.7969" fill="none" style="stroke:#181818;stroke-width:0.5;"></path></g><g class="participant participant-tail" data-entity-uid="part1" data-qualified-name="Attacker" id="part1-tail"><text fill="#000000" font-family="sans-serif" font-size="14" lengthAdjust="spacing" textLength="122.623" x="5" y="885.4404">Злоумышленник</text><ellipse cx="69.3115" cy="897.2422" fill="#FF0000" rx="8" ry="8" style="stroke:#181818;stroke-width:0.5;"></ellipse><path d="M69.3115,905.2422 L69.3115,932.2422 M56.3115,913.2422 L82.3115,913.2422 M69.3115,932.2422 L56.3115,947.2422 M69.3115,932.2422 L82.3115,947.2422" fill="none" style="stroke:#181818;stroke-width:0.5;"></path></g><g class="participant participant-head" data-entity-uid="part2" data-qualified-name="Nginx" id="part2-head"><rect fill="#E2E2F0" height="30.2969" rx="2.5" ry="2.5" style="stroke:#181818;stroke-width:0.5;" width="54.4072" x="373.3091" y="87.2969"></rect><text fill="#000000" font-family="sans-serif" font-size="14" lengthAdjust="spacing" textLength="40.4072" x="380.3091" y="107.292">Nginx</text></g><g class="participant participant-tail" data-entity-uid="part2" data-qualified-name="Nginx" id="part2-tail"><rect fill="#E2E2F0" height="30.2969" rx="2.5" ry="2.5" style="stroke:#181818;stroke-width:0.5;" width="54.4072" x="373.3091" y="872.4453"></rect><text fill="#000000" font-family="sans-serif" font-size="14" lengthAdjust="spacing" textLength="40.4072" x="380.3091" y="892.4404">Nginx</text></g><g class="participant participant-head" data-entity-uid="part3" data-qualified-name="Backend" id="part3-head"><rect fill="#E2E2F0" height="30.2969" rx="2.5" ry="2.5" style="stroke:#181818;stroke-width:0.5;" width="130.375" x="482.5776" y="87.2969"></rect><text fill="#000000" font-family="sans-serif" font-size="14" lengthAdjust="spacing" textLength="116.375" x="489.5776" y="107.292">FastAPI Backend</text></g><g class="participant participant-tail" data-entity-uid="part3" data-qualified-name="Backend" id="part3-tail"><rect fill="#E2E2F0" height="30.2969" rx="2.5" ry="2.5" style="stroke:#181818;stroke-width:0.5;" width="130.375" x="482.5776" y="872.4453"></rect><text fill="#000000" font-family="sans-serif" font-size="14" lengthAdjust="spacing" textLength="116.375" x="489.5776" y="892.4404">FastAPI Backend</text></g><g class="participant participant-head" data-entity-uid="part4" data-qualified-name="ES" id="part4-head"><text fill="#000000" font-family="sans-serif" font-size="14" lengthAdjust="spacing" textLength="94.0898" x="704.5747" y="115.292">ElasticSearch</text><path d="M736.6196,66.2969 C736.6196,56.2969 754.6196,56.2969 754.6196,56.2969 C754.6196,56.2969 772.6196,56.2969 772.6196,66.2969 L772.6196,92.2969 C772.6196,102.2969 754.6196,102.2969 754.6196,102.2969 C754.6196,102.2969 736.6196,102.2969 736.6196,92.2969 L736.6196,66.2969" fill="#E2E2F0" style="stroke:#181818;stroke-width:0.5;"></path><path d="M736.6196,66.2969 C736.6196,76.2969 754.6196,76.2969 754.6196,76.2969 C754.6196,76.2969 772.6196,76.2969 772.6196,66.2969" fill="none" style="stroke:#181818;stroke-width:0.5;"></path></g><g class="participant participant-tail" data-entity-uid="part4" data-qualified-name="ES" id="part4-tail"><text fill="#000000" font-family="sans-serif" font-size="14" lengthAdjust="spacing" textLength="94.0898" x="704.5747" y="885.4404">ElasticSearch</text><path d="M736.6196,898.7422 C736.6196,888.7422 754.6196,888.7422 754.6196,888.7422 C754.6196,888.7422 772.6196,888.7422 772.6196,898.7422 L772.6196,924.7422 C772.6196,934.7422 754.6196,934.7422 754.6196,934.7422 C754.6196,934.7422 736.6196,934.7422 736.6196,924.7422 L736.6196,898.7422" fill="#E2E2F0" style="stroke:#181818;stroke-width:0.5;"></path><path d="M736.6196,898.7422 C736.6196,908.7422 754.6196,908.7422 754.6196,908.7422 C754.6196,908.7422 772.6196,908.7422 772.6196,898.7422" fill="none" style="stroke:#181818;stroke-width:0.5;"></path></g><rect fill="#EEEEEE" height="3" style="stroke:#EEEEEE;stroke-width:1;" width="809.6646" x="0" y="149.1602"></rect><line style="stroke:#000000;stroke-width:1;" x1="0" x2="809.6646" y1="149.1602" y2="149.1602"></line><line style="stroke:#000000;stroke-width:1;" x1="0" x2="809.6646" y1="152.1602" y2="152.1602"></line><rect fill="#EEEEEE" height="23.1328" style="stroke:#000000;stroke-width:2;" width="223.4092" x="293.1277" y="138.5938"></rect><text fill="#000000" font-family="sans-serif" font-size="13" font-weight="bold" lengthAdjust="spacing" textLength="204.8833" x="299.1277" y="154.6606">Этап 1: Получение секрета</text><g class="message" data-entity-1="part1" data-entity-2="part1" id="msg1"><line style="stroke:#181818;stroke-width:1;" x1="69.3115" x2="111.3115" y1="223.125" y2="223.125"></line><line style="stroke:#181818;stroke-width:1;" x1="111.3115" x2="111.3115" y1="223.125" y2="236.125"></line><line style="stroke:#181818;stroke-width:1;" x1="70.3115" x2="111.3115" y1="236.125" y2="236.125"></line><polygon fill="#181818" points="80.3115,232.125,70.3115,236.125,80.3115,240.125,76.3115,236.125" style="stroke:#181818;stroke-width:1;"></polygon><text fill="#000000" font-family="sans-serif" font-size="13" lengthAdjust="spacing" textLength="214.1128" x="76.3115" y="187.7935">Получение DRONE_SECRET_KEY</text><text fill="#000000" font-family="sans-serif" font-size="13" lengthAdjust="spacing" textLength="160.4561" x="76.3115" y="202.9263">(утечка конфигурации,</text><text fill="#000000" font-family="sans-serif" font-size="13" lengthAdjust="spacing" textLength="178.9722" x="76.3115" y="218.0591">доступ к хосту, CI/CD лог)</text></g><rect fill="#EEEEEE" height="3" style="stroke:#EEEEEE;stroke-width:1;" width="809.6646" x="0" y="264.6914"></rect><line style="stroke:#000000;stroke-width:1;" x1="0" x2="809.6646" y1="264.6914" y2="264.6914"></line><line style="stroke:#000000;stroke-width:1;" x1="0" x2="809.6646" y1="267.6914" y2="267.6914"></line><rect fill="#EEEEEE" height="23.1328" style="stroke:#000000;stroke-width:2;" width="316.7388" x="246.4629" y="254.125"></rect><text fill="#000000" font-family="sans-serif" font-size="13" font-weight="bold" lengthAdjust="spacing" textLength="298.2129" x="252.4629" y="270.1919">Этап 2: Генерация поддельного токена</text><g class="message" data-entity-1="part1" data-entity-2="part1" id="msg2"><line style="stroke:#181818;stroke-width:1;" x1="69.3115" x2="111.3115" y1="384.0547" y2="384.0547"></line><line style="stroke:#181818;stroke-width:1;" x1="111.3115" x2="111.3115" y1="384.0547" y2="397.0547"></line><line style="stroke:#181818;stroke-width:1;" x1="70.3115" x2="111.3115" y1="397.0547" y2="397.0547"></line><polygon fill="#181818" points="80.3115,393.0547,70.3115,397.0547,80.3115,401.0547,76.3115,397.0547" style="stroke:#181818;stroke-width:1;"></polygon><text fill="#000000" font-family="sans-serif" font-size="13" lengthAdjust="spacing" textLength="76.1338" x="76.3115" y="303.3247">jwt.encode(</text><text fill="#000000" font-family="sans-serif" font-size="13" lengthAdjust="spacing" textLength="124.0078" x="84.5762" y="318.4575">{"sub": "operator",</text><text fill="#000000" font-family="sans-serif" font-size="13" lengthAdjust="spacing" textLength="109.4082" x="88.7085" y="333.5903">"type": "access",</text><text fill="#000000" font-family="sans-serif" font-size="13" lengthAdjust="spacing" textLength="118.752" x="88.7085" y="348.7231">"exp": ..., "iat": ...,</text><text fill="#000000" font-family="sans-serif" font-size="13" lengthAdjust="spacing" textLength="95.6147" x="88.7085" y="363.856">"jti": random},</text><text fill="#000000" font-family="sans-serif" font-size="13" lengthAdjust="spacing" textLength="138.0869" x="84.5762" y="378.9888">SECRET_KEY, HS256)</text></g><rect fill="#EEEEEE" height="3" style="stroke:#EEEEEE;stroke-width:1;" width="809.6646" x="0" y="425.6211"></rect><line style="stroke:#000000;stroke-width:1;" x1="0" x2="809.6646" y1="425.6211" y2="425.6211"></line><line style="stroke:#000000;stroke-width:1;" x1="0" x2="809.6646" y1="428.6211" y2="428.6211"></line><rect fill="#EEEEEE" height="23.1328" style="stroke:#000000;stroke-width:2;" width="208.0479" x="300.8083" y="415.0547"></rect><text fill="#000000" font-family="sans-serif" font-size="13" font-weight="bold" lengthAdjust="spacing" textLength="189.522" x="306.8083" y="431.1216">Этап 3: Доступ к системе</text><g class="message" data-entity-1="part1" data-entity-2="part2" id="msg3"><polygon fill="#181818" points="388.5127,480.4531,398.5127,484.4531,388.5127,488.4531,392.5127,484.4531" style="stroke:#181818;stroke-width:1;"></polygon><line style="stroke:#181818;stroke-width:1;" x1="69.3115" x2="394.5127" y1="484.4531" y2="484.4531"></line><text fill="#000000" font-family="sans-serif" font-size="13" lengthAdjust="spacing" textLength="126.9468" x="76.3115" y="464.2544">GET /api/log/events</text><text fill="#000000" font-family="sans-serif" font-size="13" lengthAdjust="spacing" textLength="307.2012" x="76.3115" y="479.3872">[Authorization: Bearer &lt;поддельный_токен&gt;]</text></g><g class="message" data-entity-1="part2" data-entity-2="part3" id="msg4"><polygon fill="#181818" points="535.7651,509.5859,545.7651,513.5859,535.7651,517.5859,539.7651,513.5859" style="stroke:#181818;stroke-width:1;"></polygon><line style="stroke:#181818;stroke-width:1;" x1="400.5127" x2="541.7651" y1="513.5859" y2="513.5859"></line><text fill="#000000" font-family="sans-serif" font-size="13" lengthAdjust="spacing" textLength="106.209" x="407.5127" y="508.52">Проксирование</text></g><g class="message" data-entity-1="part3" data-entity-2="part3" id="msg5"><line style="stroke:#181818;stroke-width:1;" x1="547.7651" x2="589.7651" y1="572.9844" y2="572.9844"></line><line style="stroke:#181818;stroke-width:1;" x1="589.7651" x2="589.7651" y1="572.9844" y2="585.9844"></line><line style="stroke:#181818;stroke-width:1;" x1="548.7651" x2="589.7651" y1="585.9844" y2="585.9844"></line><polygon fill="#181818" points="558.7651,581.9844,548.7651,585.9844,558.7651,589.9844,554.7651,585.9844" style="stroke:#181818;stroke-width:1;"></polygon><text fill="#000000" font-family="sans-serif" font-size="13" lengthAdjust="spacing" textLength="81.2183" x="554.7651" y="537.6528">jwt.decode()</text><text fill="#000000" font-family="sans-serif" font-size="13" lengthAdjust="spacing" textLength="142.2891" x="554.7651" y="552.7856">(подпись совпадает,</text><text fill="#000000" font-family="sans-serif" font-size="13" lengthAdjust="spacing" textLength="108.729" x="554.7651" y="567.9185">токен не истёк)</text></g><g class="message" data-entity-1="part3" data-entity-2="part3" id="msg6"><line style="stroke:#181818;stroke-width:1;" x1="547.7651" x2="589.7651" y1="630.25" y2="630.25"></line><line style="stroke:#181818;stroke-width:1;" x1="589.7651" x2="589.7651" y1="630.25" y2="643.25"></line><line style="stroke:#181818;stroke-width:1;" x1="548.7651" x2="589.7651" y1="643.25" y2="643.25"></line><polygon fill="#181818" points="558.7651,639.25,548.7651,643.25,558.7651,647.25,554.7651,643.25" style="stroke:#181818;stroke-width:1;"></polygon><text fill="#000000" font-family="sans-serif" font-size="13" lengthAdjust="spacing" textLength="121.5386" x="554.7651" y="610.0513">Проверка payload</text><text fill="#000000" font-family="sans-serif" font-size="13" lengthAdjust="spacing" textLength="192.8545" x="554.7651" y="625.1841">(sub != "", type == "access")</text></g><g class="message" data-entity-1="part3" data-entity-2="part4" id="msg7"><polygon fill="#181818" points="742.6196,668.3828,752.6196,672.3828,742.6196,676.3828,746.6196,672.3828" style="stroke:#181818;stroke-width:1;"></polygon><line style="stroke:#181818;stroke-width:1;" x1="547.7651" x2="748.6196" y1="672.3828" y2="672.3828"></line><text fill="#000000" font-family="sans-serif" font-size="13" lengthAdjust="spacing" textLength="144.771" x="554.7651" y="667.3169">Запрос всех событий</text></g><g class="message" data-entity-1="part4" data-entity-2="part3" id="msg8"><polygon fill="#181818" points="558.7651,697.5156,548.7651,701.5156,558.7651,705.5156,554.7651,701.5156" style="stroke:#181818;stroke-width:1;"></polygon><line style="stroke:#181818;stroke-width:1;stroke-dasharray:2,2;" x1="552.7651" x2="753.6196" y1="701.5156" y2="701.5156"></line><text fill="#000000" font-family="sans-serif" font-size="13" lengthAdjust="spacing" textLength="171.7993" x="564.7651" y="696.4497">Полный журнал событий</text></g><g class="message" data-entity-1="part3" data-entity-2="part2" id="msg9"><polygon fill="#181818" points="411.5127,726.6484,401.5127,730.6484,411.5127,734.6484,407.5127,730.6484" style="stroke:#181818;stroke-width:1;"></polygon><line style="stroke:#181818;stroke-width:1;stroke-dasharray:2,2;" x1="405.5127" x2="546.7651" y1="730.6484" y2="730.6484"></line><text fill="#000000" font-family="sans-serif" font-size="13" lengthAdjust="spacing" textLength="123.2524" x="417.5127" y="725.5825">200 [все события]</text></g><g class="message" data-entity-1="part2" data-entity-2="part1" id="msg10"><polygon fill="#181818" points="80.3115,755.7813,70.3115,759.7813,80.3115,763.7813,76.3115,759.7813" style="stroke:#181818;stroke-width:1;"></polygon><line style="stroke:#181818;stroke-width:1;stroke-dasharray:2,2;" x1="74.3115" x2="399.5127" y1="759.7813" y2="759.7813"></line><text fill="#000000" font-family="sans-serif" font-size="13" lengthAdjust="spacing" textLength="24.813" x="86.3115" y="754.7153">200</text></g><path d="M74,772.7813 L74,857.7813 L276,857.7813 L276,782.7813 L266,772.7813 L74,772.7813" fill="#FFC0CB" style="stroke:#181818;stroke-width:0.5;"></path><path d="M266,772.7813 L266,782.7813 L276,782.7813 L266,772.7813" fill="#FFC0CB" style="stroke:#181818;stroke-width:0.5;"></path><text fill="#000000" font-family="sans-serif" font-size="13" lengthAdjust="spacing" textLength="159.8213" x="80" y="789.8481">Злоумышленник имеет</text><text fill="#000000" font-family="sans-serif" font-size="13" lengthAdjust="spacing" textLength="181.0225" x="80" y="804.981">полный доступ на чтение.</text><text fill="#000000" font-family="sans-serif" font-size="13" lengthAdjust="spacing" textLength="153.5181" x="80" y="820.1138">Может также вызвать</text><text fill="#000000" font-family="sans-serif" font-size="13" lengthAdjust="spacing" textLength="152.4707" x="80" y="835.2466">/auth/logout для denial</text><text fill="#000000" font-family="sans-serif" font-size="13" lengthAdjust="spacing" textLength="67.3613" x="80" y="850.3794">of service.</text><!--?plantuml-src VLHTJnD157sVNt5TNo0fBMBqWLWIFbP54oIKn1XAoB0ToqBTRRP31Oq9BI8ca12Z2OanyS5d4mIAfONsBzpvHzuxRIcjOZPjPkQU-tNkcT6-pYd07tXYjh21l_48HaO1lzBw0flsx08hfen7vWDMpG4yUJu_P4fOmHePhG46t9mgIks70OGlOJRoYtvEPTMW4DBJOGGE7c8T6sORByoU-KZh2bxILyMQ0x80urfBRqr5S3jI6P6NaVOzFoy33SvCrWysBCYkUeqFPK6Fpqx317i76GjhhqL6Qhai2meSDqSmtqif6Nah5kEcX4Wc0NzozTY4EzJmTsgqRhRDhgsjYXNeQpAP5EAgqA6nRj7_T9wQUpRZBgNSoJbtVkcf-o8T392zJB5siKRHwA-1b-OzWK_8iDMY5wknT82dH5N9b8ck9k70x7JsCPYSJanE0PE99uEzJV3KFjlybKuucXOs2NfANuKAt2SZEM83oAT19J3wlvsjljPn5NXXHWsa0u2tJc5zsHa59yohID9edHWVWwCtyuhFfUUfGg5pgZRoT1YFnsFW-5AtrotRglPf7yaW4xvwPy-wPCNWSMhatls-1kzIWr_wg2bHaoMcbKNwLoDMCjJ58tSU4ZBl9t9XDg6AAj25TB0mlgvNmiX_OuKx2XEa3t9xqC-OsSFpfIvVOuj2jE9IWhROh0JiLQdPYdXrJ3LRAGZHGVKuCBCPPPaT1597EstJDhJFdN6C9aKvfHz9a3ZgLW4yPcWrRpvXRV26BEsoZgqcM7TvkPaBPOOpqYZXLX8S9mOyFcBlQdwzuTmKHpha8N0qKm8yvijXTbfb_g9BNQPMpmKXX_hoyyreaGXuPfLEaiDwlsSttxMvZGmFmq8hLm_U72nsPj0hLt8G8WYrWiZFhcX-ZRflIzuFrWJ0pMyHySaoOh8PrxnUUi-Tv4jZTgtix8ZZ3Fz6y3Fs1QlN6c-Og3rwKqaCvBjFi8GarR4EmtNDKUjqHpCgy6MEZ5HkGKL5trDnmLnm9-8F?--></g></svg>