<?xml version="1.0" encoding="UTF-8" standalone="yes"?>
<svg xmlns="http://www.w3.org/2000/svg" xmlns:xlink="http://www.w3.org/1999/xlink" contentstyletype="text/css" data-diagram-type="DESCRIPTION" height="930px" preserveAspectRatio="none" style="width:1282px;height:930px;background:#FEFEFE;" version="1.1" viewBox="0 0 1282 930" width="1282px" zoomAndPan="magnify" xmlns:xhtml="http://www.w3.org/1999/xhtml"><style>
             .markmap-foreign div { color: #333 !important; }
             .markmap-foreign strong { font-weight: bold !important; }
             .markmap-foreign table { border-collapse: collapse !important; }
             .markmap-foreign th, .markmap-foreign td { border: 1px solid #333 !important; padding: 3px !important; }
             .markmap-node > circle { fill: #fff !important; }</style><defs></defs><g><rect fill="#FEFEFE" height="930" style="stroke:none;stroke-width:1;" width="1282" x="0" y="0"></rect><!--cluster ???????????? ???? (Untrusted)--><g class="cluster" data-qualified-name="............ .... .Untrusted." data-source-line="35" id="ent0002"><path d="M380.5,6 L599.2549,6 A3.75,3.75 0 0 1 601.7549,8.5 L608.7549,24.8047 L889.5,24.8047 A2.5,2.5 0 0 1 892,27.3047 L892,121.91 A2.5,2.5 0 0 1 889.5,124.41 L380.5,124.41 A2.5,2.5 0 0 1 378,121.91 L378,8.5 A2.5,2.5 0 0 1 380.5,6" fill="#FDEDEC" style="stroke:#C0392B;stroke-width:1.5;"></path><line style="stroke:#C0392B;stroke-width:1.5;" x1="378" x2="608.7549" y1="24.8047" y2="24.8047"></line><text fill="#922B21" font-family="sans-serif" font-size="11" font-weight="bold" lengthAdjust="spacing" textLength="217.7549" x="382" y="18.2104">НЕДОВЕРЕННАЯ ЗОНА (Untrusted)</text><text fill="#922B21" font-family="sans-serif" font-size="11" font-style="italic" lengthAdjust="spacing" textLength="31.7324" x="623.1338" y="37.0151">«red»</text></g><!--cluster ??????? ?????????? ???? (Semi-trusted)\n????? >= 30%--><g class="cluster" data-qualified-name="....... .......... .... .Semi-trusted..n..... .. 30." data-source-line="42" id="ent0006"><path d="M8.5,148.41 L294.7642,148.41 A3.75,3.75 0 0 1 297.2642,150.91 L304.2642,180.0194 L1026.5,180.0194 A2.5,2.5 0 0 1 1029,182.5194 L1029,852.51 A2.5,2.5 0 0 1 1026.5,855.01 L8.5,855.01 A2.5,2.5 0 0 1 6,852.51 L6,150.91 A2.5,2.5 0 0 1 8.5,148.41" fill="#FEF9E7" style="stroke:#F39C12;stroke-width:1.5;"></path><line style="stroke:#F39C12;stroke-width:1.5;" x1="6" x2="304.2642" y1="180.0194" y2="180.0194"></line><text fill="#7D6608" font-family="sans-serif" font-size="11" font-weight="bold" lengthAdjust="spacing" textLength="285.2642" x="10" y="160.6204">УСЛОВНО ДОВЕРЕННАЯ ЗОНА (Semi-trusted)</text><text fill="#7D6608" font-family="sans-serif" font-size="11" font-weight="bold" lengthAdjust="spacing" textLength="90.229" x="107.5176" y="173.4251">Тесты &gt;= 30%</text><text fill="#7D6608" font-family="sans-serif" font-size="11" font-style="italic" lengthAdjust="spacing" textLength="48.5762" x="497.2119" y="192.2298">«yellow»</text></g><!--cluster ?????????? ???? (Trusted) ? ????? >= 70%--><g class="cluster" data-qualified-name="....... .......... .... .Semi-trusted..n..... .. 30............ .... .Trusted. . ..... .. 70." data-source-line="53" id="ent0011"><path d="M32.5,465.46 L328.9048,465.46 A3.75,3.75 0 0 1 331.4048,467.96 L338.4048,484.2647 L819.5,484.2647 A2.5,2.5 0 0 1 822,486.7647 L822,828.51 A2.5,2.5 0 0 1 819.5,831.01 L32.5,831.01 A2.5,2.5 0 0 1 30,828.51 L30,467.96 A2.5,2.5 0 0 1 32.5,465.46" fill="#EAFAF1" style="stroke:#27AE60;stroke-width:1.5;"></path><line style="stroke:#27AE60;stroke-width:1.5;" x1="30" x2="338.4048" y1="484.2647" y2="484.2647"></line><text fill="#1E8449" font-family="sans-serif" font-size="11" font-weight="bold" lengthAdjust="spacing" textLength="295.4048" x="34" y="477.6704">ДОВЕРЕННАЯ ЗОНА (Trusted) — Тесты &gt;= 70%</text><text fill="#1E8449" font-family="sans-serif" font-size="11" font-style="italic" lengthAdjust="spacing" textLength="45.4717" x="407.2642" y="496.4751">«green»</text></g><!--cluster Policy Enforcement Point <<PEP>>--><g class="cluster" data-qualified-name="....... .......... .... .Semi-trusted..n..... .. 30............ .... .Trusted. . ..... .. 70..Policy Enforcement Point ..PEP.." data-source-line="55" id="ent0012"><path d="M437.5,517.46 L636.2744,517.46 A3.75,3.75 0 0 1 638.7744,519.96 L645.7744,536.2647 L795.5,536.2647 A2.5,2.5 0 0 1 798,538.7647 L798,658.98 A2.5,2.5 0 0 1 795.5,661.48 L437.5,661.48 A2.5,2.5 0 0 1 435,658.98 L435,519.96 A2.5,2.5 0 0 1 437.5,517.46" fill="#D5F5E3" style="stroke:#27AE60;stroke-width:1.5;"></path><line style="stroke:#27AE60;stroke-width:1.5;" x1="435" x2="645.7744" y1="536.2647" y2="536.2647"></line><text fill="#000000" font-family="sans-serif" font-size="11" font-weight="bold" lengthAdjust="spacing" textLength="197.7744" x="439" y="529.6704">Policy Enforcement Point «PEP»</text><text fill="#000000" font-family="sans-serif" font-size="11" font-style="italic" lengthAdjust="spacing" textLength="73.9492" x="583.5254" y="548.4751">«greenInner»</text></g><!--cluster ???????????? ? ?????????--><g class="cluster" data-qualified-name="....... .......... .... .Semi-trusted..n..... .. 30............ .... .Trusted. . ..... .. 70.............. . ........." data-source-line="60" id="ent0015"><path d="M56.5,517.46 L235.0791,517.46 A3.75,3.75 0 0 1 237.5791,519.96 L244.5791,536.2647 L408.5,536.2647 A2.5,2.5 0 0 1 411,538.7647 L411,658.98 A2.5,2.5 0 0 1 408.5,661.48 L56.5,661.48 A2.5,2.5 0 0 1 54,658.98 L54,519.96 A2.5,2.5 0 0 1 56.5,517.46" fill="#D5F5E3" style="stroke:#27AE60;stroke-width:1.5;"></path><line style="stroke:#27AE60;stroke-width:1.5;" x1="54" x2="244.5791" y1="536.2647" y2="536.2647"></line><text fill="#000000" font-family="sans-serif" font-size="11" font-weight="bold" lengthAdjust="spacing" textLength="177.5791" x="58" y="529.6704">Криптография и валидация</text><text fill="#000000" font-family="sans-serif" font-size="11" font-style="italic" lengthAdjust="spacing" textLength="73.9492" x="199.5254" y="548.4751">«greenInner»</text></g><!--entity ExtSvc--><g class="entity" data-qualified-name="............ .... .Untrusted..ExtSvc" data-source-line="36" id="ent0003"><rect fill="#FFC0C0" height="58.4141" rx="2.5" ry="2.5" style="stroke:#2C3E50;stroke-width:0.5;" width="163.4404" x="712.28" y="50"></rect><text fill="#000000" font-family="sans-serif" font-size="11" lengthAdjust="spacing" textLength="104.3389" x="722.28" y="70.2104">Внешние сервисы</text><text fill="#000000" font-family="sans-serif" font-size="11" lengthAdjust="spacing" textLength="143.4404" x="722.28" y="83.0151">(дроны, GCS, aggregator,</text><text fill="#000000" font-family="sans-serif" font-size="11" lengthAdjust="spacing" textLength="126.1616" x="722.28" y="95.8198">insurance, regulator...)</text></g><!--entity Browser--><g class="entity" data-qualified-name="............ .... .Untrusted..Browser" data-source-line="37" id="ent0004"><rect fill="#FFC0C0" height="32.8047" rx="2.5" ry="2.5" style="stroke:#2C3E50;stroke-width:0.5;" width="132.1484" x="544.93" y="62.8"></rect><text fill="#000000" font-family="sans-serif" font-size="11" lengthAdjust="spacing" textLength="112.1484" x="554.93" y="83.0104">Браузер оператора</text></g><!--entity Attacker--><g class="entity" data-qualified-name="............ .... .Untrusted..Attacker" data-source-line="38" id="ent0005"><rect fill="#F1948A" height="45.6094" rx="2.5" ry="2.5" style="stroke:#2C3E50;stroke-width:0.5;" width="115.1436" x="394.43" y="56.4"></rect><text fill="#000000" font-family="sans-serif" font-size="11" lengthAdjust="spacing" textLength="93.2852" x="404.43" y="76.6104">Потенциальный</text><text fill="#000000" font-family="sans-serif" font-size="11" lengthAdjust="spacing" textLength="95.1436" x="404.43" y="89.4151">злоумышленник</text></g><!--entity Nginx--><g class="entity" data-qualified-name="....... .......... .... .Semi-trusted..n..... .. 30..Nginx" data-source-line="44" id="ent0007"><rect fill="#FFFFFF" height="92.0234" rx="2.5" ry="2.5" style="stroke:#2C3E50;stroke-width:0.5;" width="114.1714" x="553.91" y="205.41"></rect><text fill="#000000" font-family="sans-serif" font-size="11" font-weight="bold" lengthAdjust="spacing" textLength="35.7769" x="563.91" y="225.6204">Nginx</text><text fill="#000000" font-family="sans-serif" font-size="11" lengthAdjust="spacing" textLength="79.1108" x="563.91" y="238.4251">Reverse Proxy</text><line style="stroke:#2C3E50;stroke-width:1;" x1="554.91" x2="667.0814" y1="241.0194" y2="241.0194"></line><text fill="#000000" font-family="sans-serif" font-size="11" lengthAdjust="spacing" textLength="87.4844" x="563.91" y="255.2298">TLS termination</text><text fill="#000000" font-family="sans-serif" font-size="11" lengthAdjust="spacing" textLength="70.168" x="563.91" y="268.0345">Rate limiting</text><text fill="#000000" font-family="sans-serif" font-size="11" lengthAdjust="spacing" textLength="94.1714" x="563.91" y="280.8392">Маршрутизация</text></g><!--entity FE--><g class="entity" data-qualified-name="....... .......... .... .Semi-trusted..n..... .. 30..FE" data-source-line="46" id="ent0008"><rect fill="#FFFFFF" height="92.0234" rx="2.5" ry="2.5" style="stroke:#2C3E50;stroke-width:0.5;" width="167.5171" x="425.24" y="357.44"></rect><text fill="#000000" font-family="sans-serif" font-size="11" font-weight="bold" lengthAdjust="spacing" textLength="95.7129" x="435.24" y="377.6504">React Frontend</text><text fill="#000000" font-family="sans-serif" font-size="11" lengthAdjust="spacing" textLength="56.0903" x="435.24" y="390.4551">Static SPA</text><line style="stroke:#2C3E50;stroke-width:1;" x1="426.24" x2="591.7571" y1="393.0494" y2="393.0494"></line><text fill="#000000" font-family="sans-serif" font-size="11" lengthAdjust="spacing" textLength="134.6909" x="435.24" y="407.2598">Отображение журнала</text><text fill="#000000" font-family="sans-serif" font-size="11" lengthAdjust="spacing" textLength="147.5171" x="435.24" y="420.0645">Визуализация аналитики</text><text fill="#000000" font-family="sans-serif" font-size="11" lengthAdjust="spacing" textLength="136.6567" x="435.24" y="432.8692">Экранирование вывода</text></g><!--entity BizLogic--><g class="entity" data-qualified-name="....... .......... .... .Semi-trusted..n..... .. 30..BizLogic" data-source-line="48" id="ent0009"><rect fill="#FFFFFF" height="79.2188" rx="2.5" ry="2.5" style="stroke:#2C3E50;stroke-width:0.5;" width="173.291" x="627.35" y="363.84"></rect><text fill="#000000" font-family="sans-serif" font-size="11" font-weight="bold" lengthAdjust="spacing" textLength="104.0488" x="637.35" y="384.0504">FastAPI Backend</text><text fill="#000000" font-family="sans-serif" font-size="11" lengthAdjust="spacing" textLength="153.291" x="637.35" y="396.8551">Бизнес-логика маршрутов</text><line style="stroke:#2C3E50;stroke-width:1;" x1="628.35" x2="799.641" y1="399.4494" y2="399.4494"></line><text fill="#000000" font-family="sans-serif" font-size="11" lengthAdjust="spacing" textLength="55.3008" x="637.35" y="413.6598">log routes</text><text fill="#000000" font-family="sans-serif" font-size="11" lengthAdjust="spacing" textLength="87.6992" x="637.35" y="426.4645">analytics routes</text></g><!--entity PG--><g class="entity" data-qualified-name="....... .......... .... .Semi-trusted..n..... .. 30..PG" data-source-line="50" id="ent0010"><path d="M837.62,562.96 C837.62,552.96 907.0028,552.96 907.0028,552.96 C907.0028,552.96 976.3856,552.96 976.3856,562.96 L976.3856,643.9834 C976.3856,653.9834 907.0028,653.9834 907.0028,653.9834 C907.0028,653.9834 837.62,653.9834 837.62,643.9834 L837.62,562.96" fill="#F1F1F1" style="stroke:#181818;stroke-width:0.5;"></path><path d="M837.62,562.96 C837.62,572.96 907.0028,572.96 907.0028,572.96 C907.0028,572.96 976.3856,572.96 976.3856,562.96" fill="none" style="stroke:#181818;stroke-width:0.5;"></path><text fill="#000000" font-family="sans-serif" font-size="11" font-weight="bold" lengthAdjust="spacing" textLength="72.4668" x="847.62" y="587.1704">PostgreSQL</text><text fill="#000000" font-family="sans-serif" font-size="11" lengthAdjust="spacing" textLength="118.7656" x="847.62" y="599.9751">Аналитика сервисов</text><text fill="#000000" font-family="sans-serif" font-size="11" lengthAdjust="spacing" textLength="112.2397" x="847.62" y="612.7798">(схема уточняется)</text><path d="M837.62,610.3741 C837.62,620.3741 907.0028,620.3741 907.0028,620.3741 C907.0028,620.3741 976.3856,620.3741 976.3856,610.3741" fill="none" style="stroke:#181818;stroke-width:1;"></path><text fill="#000000" font-family="sans-serif" font-size="11" lengthAdjust="spacing" textLength="69.1152" x="847.62" y="629.5845">Изолирован</text><text fill="#000000" font-family="sans-serif" font-size="11" lengthAdjust="spacing" textLength="97.0557" x="847.62" y="642.3892">в Docker network</text></g><!--entity ES--><g class="entity" data-qualified-name="....... .......... .... .Semi-trusted..n..... .. 30............ .... .Trusted. . ..... .. 70..ES" data-source-line="65" id="ent0018"><path d="M272.47,723.98 C272.47,713.98 330.9978,713.98 330.9978,713.98 C330.9978,713.98 389.5257,713.98 389.5257,723.98 L389.5257,805.0034 C389.5257,815.0034 330.9978,815.0034 330.9978,815.0034 C330.9978,815.0034 272.47,815.0034 272.47,805.0034 L272.47,723.98" fill="#F1F1F1" style="stroke:#181818;stroke-width:0.5;"></path><path d="M272.47,723.98 C272.47,733.98 330.9978,733.98 330.9978,733.98 C330.9978,733.98 389.5257,733.98 389.5257,723.98" fill="none" style="stroke:#181818;stroke-width:0.5;"></path><text fill="#000000" font-family="sans-serif" font-size="11" font-weight="bold" lengthAdjust="spacing" textLength="83.3862" x="282.47" y="748.1904">ElasticSearch</text><text fill="#000000" font-family="sans-serif" font-size="11" lengthAdjust="spacing" textLength="71.0112" x="282.47" y="760.9951">Журнал K11</text><path d="M272.47,758.5894 C272.47,768.5894 330.9978,768.5894 330.9978,768.5894 C330.9978,768.5894 389.5257,768.5894 389.5257,758.5894" fill="none" style="stroke:#181818;stroke-width:1;"></path><text fill="#000000" font-family="sans-serif" font-size="11" lengthAdjust="spacing" textLength="69.4482" x="282.47" y="777.7998">Append-only</text><text fill="#000000" font-family="sans-serif" font-size="11" lengthAdjust="spacing" textLength="69.1152" x="282.47" y="790.6045">Изолирован</text><text fill="#000000" font-family="sans-serif" font-size="11" lengthAdjust="spacing" textLength="97.0557" x="282.47" y="803.4092">в Docker network</text></g><!--entity Auth--><g class="entity" data-qualified-name="....... .......... .... .Semi-trusted..n..... .. 30............ .... .Trusted. . ..... .. 70..Policy Enforcement Point ..PEP...Auth" data-source-line="56" id="ent0013"><rect fill="#FFFFFF" height="84.0234" rx="2.5" ry="2.5" style="stroke:#2C3E50;stroke-width:0.5;" width="136.0586" x="645.97" y="561.46"></rect><text fill="#000000" font-family="sans-serif" font-size="11" font-weight="bold" lengthAdjust="spacing" textLength="81.7427" x="655.97" y="581.6704">Модуль auth</text><text fill="#000000" font-family="sans-serif" font-size="11" lengthAdjust="spacing" textLength="97.7378" x="655.97" y="594.4751">verify_password()</text><text fill="#000000" font-family="sans-serif" font-size="11" lengthAdjust="spacing" textLength="116.0586" x="655.97" y="607.2798">issue_access_token()</text><text fill="#000000" font-family="sans-serif" font-size="11" lengthAdjust="spacing" textLength="96.5132" x="655.97" y="620.0845">decode_*_token()</text><text fill="#000000" font-family="sans-serif" font-size="11" lengthAdjust="spacing" textLength="35.3579" x="655.97" y="632.8892">bcrypt</text></g><!--entity Deps--><g class="entity" data-qualified-name="....... .......... .... .Semi-trusted..n..... .. 30............ .... .Trusted. . ..... .. 70..Policy Enforcement Point ..PEP...Deps" data-source-line="57" id="ent0014"><rect fill="#FFFFFF" height="71.2188" rx="2.5" ry="2.5" style="stroke:#2C3E50;stroke-width:0.5;" width="159.3638" x="451.32" y="567.86"></rect><text fill="#000000" font-family="sans-serif" font-size="11" font-weight="bold" lengthAdjust="spacing" textLength="139.3638" x="461.32" y="588.0704">Модуль dependencies</text><text fill="#000000" font-family="sans-serif" font-size="11" lengthAdjust="spacing" textLength="95.6001" x="461.32" y="600.8751">require_api_key()</text><text fill="#000000" font-family="sans-serif" font-size="11" lengthAdjust="spacing" textLength="139.2188" x="461.32" y="613.6798">require_bearer_payload()</text><text fill="#000000" font-family="sans-serif" font-size="11" lengthAdjust="spacing" textLength="130.394" x="461.32" y="626.4845">hmac.compare_digest()</text></g><!--entity Sec--><g class="entity" data-qualified-name="....... .......... .... .Semi-trusted..n..... .. 30............ .... .Trusted. . ..... .. 70.............. . ..........Sec" data-source-line="61" id="ent0016"><rect fill="#FFFFFF" height="71.2188" rx="2.5" ry="2.5" style="stroke:#2C3E50;stroke-width:0.5;" width="128.335" x="266.83" y="567.86"></rect><text fill="#000000" font-family="sans-serif" font-size="11" font-weight="bold" lengthAdjust="spacing" textLength="103.3828" x="276.83" y="588.0704">Модуль security</text><text fill="#000000" font-family="sans-serif" font-size="11" lengthAdjust="spacing" textLength="69.1689" x="276.83" y="600.8751">JWT (HS256)</text><text fill="#000000" font-family="sans-serif" font-size="11" lengthAdjust="spacing" textLength="82.2798" x="276.83" y="613.6798">bcrypt hashing</text><text fill="#000000" font-family="sans-serif" font-size="11" lengthAdjust="spacing" textLength="108.335" x="276.83" y="626.4845">token management</text></g><!--entity Val--><g class="entity" data-qualified-name="....... .......... .... .Semi-trusted..n..... .. 30............ .... .Trusted. . ..... .. 70.............. . ..........Val" data-source-line="62" id="ent0017"><rect fill="#FFFFFF" height="84.0234" rx="2.5" ry="2.5" style="stroke:#2C3E50;stroke-width:0.5;" width="161.061" x="70.47" y="561.46"></rect><text fill="#000000" font-family="sans-serif" font-size="11" font-weight="bold" lengthAdjust="spacing" textLength="115.2476" x="80.47" y="581.6704">Модуль validation</text><text fill="#000000" font-family="sans-serif" font-size="11" lengthAdjust="spacing" textLength="90.7339" x="80.47" y="594.4751">Pydantic models</text><text fill="#000000" font-family="sans-serif" font-size="11" lengthAdjust="spacing" textLength="141.061" x="80.47" y="607.2798">StrictModel(extra=forbid)</text><text fill="#000000" font-family="sans-serif" font-size="11" lengthAdjust="spacing" textLength="90.8145" x="80.47" y="620.0845">Field constraints</text><text fill="#000000" font-family="sans-serif" font-size="11" lengthAdjust="spacing" textLength="75.2383" x="80.47" y="632.8892">Literal enums</text></g><g class="entity" data-qualified-name="GMN33" data-source-line="91" id="ent0034"><path d="M1048.43,579.26 L1048.43,627.6741 L1275.5779,627.6741 L1275.5779,589.26 L1265.5779,579.26 L1048.43,579.26" fill="#F8F9FA" style="stroke:#AEB6BF;stroke-width:0.5;"></path><path d="M1265.5779,579.26 L1265.5779,589.26 L1275.5779,589.26 L1265.5779,579.26" fill="#F8F9FA" style="stroke:#AEB6BF;stroke-width:1;"></path><text fill="#000000" font-family="sans-serif" font-size="11" font-weight="bold" lengthAdjust="spacing" textLength="165.3975" x="1054.43" y="594.4704">Точка принятия решения:</text><text fill="#000000" font-family="sans-serif" font-size="11" lengthAdjust="spacing" textLength="203.9136" x="1054.43" y="607.2751">allow → запрос передаётся дальше</text><text fill="#000000" font-family="sans-serif" font-size="11" lengthAdjust="spacing" textLength="206.1479" x="1054.43" y="620.0798">deny  → 401/403 + запись в журнал</text></g><g class="entity" data-qualified-name="GMN36" data-source-line="97" id="ent0037"><path d="M218.56,875.01 L218.56,923.4241 A0,0 0 0 0 218.56,923.4241 L443.4467,923.4241 A0,0 0 0 0 443.4467,923.4241 L443.4467,885.01 L433.4467,875.01 L335,875.01 L331,815.43 L327,875.01 L218.56,875.01 A0,0 0 0 0 218.56,875.01" fill="#F8F9FA" style="stroke:#AEB6BF;stroke-width:0.5;"></path><path d="M433.4467,875.01 L433.4467,885.01 L443.4467,885.01 L433.4467,875.01" fill="#F8F9FA" style="stroke:#AEB6BF;stroke-width:0.5;"></path><text fill="#000000" font-family="sans-serif" font-size="11" lengthAdjust="spacing" textLength="144.5737" x="224.56" y="890.2204">Критичный актив (ЦБ-1).</text><text fill="#000000" font-family="sans-serif" font-size="11" lengthAdjust="spacing" textLength="203.8867" x="224.56" y="903.0251">Прямой доступ извне невозможен.</text><text fill="#000000" font-family="sans-serif" font-size="11" lengthAdjust="spacing" textLength="131.1191" x="224.56" y="915.8298">Только через Backend.</text></g><!--link ExtSvc to Nginx--><g class="link" data-entity-1="ent0003" data-entity-2="ent0007" data-link-type="dependency" data-source-line="70" id="lnk19"><path d="M756.46,108.59 C756.46,158.01 756.46,252.42 756.46,252.42 C756.46,252.42 715.15,252.42 674.49,252.42" fill="none" id="ExtSvc-to-Nginx" style="stroke:#181818;stroke-width:1;"></path><polygon fill="#181818" points="668.49,252.42,677.49,256.42,673.49,252.42,677.49,248.42,668.49,252.42" style="stroke:#181818;stroke-width:1;"></polygon><text fill="#000000" font-family="sans-serif" font-size="11" lengthAdjust="spacing" textLength="33.29" x="707.9002" y="195.7004">«TLS»</text><text fill="#000000" font-family="sans-serif" font-size="11" lengthAdjust="spacing" textLength="62.1704" x="693.46" y="208.5051">POST /log/*</text><text fill="#000000" font-family="sans-serif" font-size="11" lengthAdjust="spacing" textLength="61.9502" x="693.5701" y="221.3098">[X-API-Key]</text></g><!--link Browser to Nginx--><g class="link" data-entity-1="ent0004" data-entity-2="ent0007" data-link-type="dependency" data-source-line="71" id="lnk20"><path d="M611,96.03 C611,121.08 611,163.11 611,199.17" fill="none" id="Browser-to-Nginx" style="stroke:#181818;stroke-width:1;"></path><polygon fill="#181818" points="611,205.17,615,196.17,611,200.17,607,196.17,611,205.17" style="stroke:#181818;stroke-width:1;"></polygon><text fill="#000000" font-family="sans-serif" font-size="11" lengthAdjust="spacing" textLength="33.29" x="576.0178" y="134.8104">«TLS»</text><text fill="#000000" font-family="sans-serif" font-size="11" lengthAdjust="spacing" textLength="35.3257" x="575" y="147.6151">HTTPS</text></g><!--link Attacker to Nginx--><g class="link" data-entity-1="ent0005" data-entity-2="ent0007" data-link-type="dependency" data-source-line="72" id="lnk21"><path d="M467.41,102.21 C467.41,149.32 467.41,252.42 467.41,252.42 C467.41,252.42 507.47,252.42 547.42,252.42" fill="none" id="Attacker-to-Nginx" style="stroke:#181818;stroke-width:1;stroke-dasharray:7,7;"></path><polygon fill="#181818" points="553.42,252.42,544.42,248.42,548.42,252.42,544.42,256.42,553.42,252.42" style="stroke:#181818;stroke-width:1;"></polygon><text fill="#000000" font-family="sans-serif" font-size="11" lengthAdjust="spacing" textLength="100.3213" x="366.41" y="217.5304">попытка доступа</text></g><!--link Nginx to FE--><g class="link" data-entity-1="ent0007" data-entity-2="ent0008" data-link-type="dependency" data-source-line="74" id="lnk22"><path d="M573.34,297.86 C573.34,316.64 573.34,332.26 573.34,351.03" fill="none" id="Nginx-to-FE" style="stroke:#181818;stroke-width:1;"></path><polygon fill="#181818" points="573.34,357.03,577.34,348.03,573.34,352.03,569.34,348.03,573.34,357.03" style="stroke:#181818;stroke-width:1;"></polygon><text fill="#000000" font-family="sans-serif" font-size="11" lengthAdjust="spacing" textLength="67.4233" x="505.34" y="324.6604">/* (статика)</text></g><!--link Nginx to BizLogic--><g class="link" data-entity-1="ent0007" data-entity-2="ent0009" data-link-type="dependency" data-source-line="75" id="lnk23"><path d="M647.72,297.86 C647.72,318.82 647.72,337.33 647.72,357.46" fill="none" id="Nginx-to-BizLogic" style="stroke:#181818;stroke-width:1;"></path><polygon fill="#181818" points="647.72,363.46,651.72,354.46,647.72,358.46,643.72,354.46,647.72,363.46" style="stroke:#181818;stroke-width:1;"></polygon><text fill="#000000" font-family="sans-serif" font-size="11" lengthAdjust="spacing" textLength="29.6914" x="583.5606" y="341.8704">/api/*</text><text fill="#000000" font-family="sans-serif" font-size="11" lengthAdjust="spacing" textLength="97.3726" x="549.72" y="354.6751">(проксирование)</text></g><!--link BizLogic to Deps--><g class="link" data-entity-1="ent0009" data-entity-2="ent0014" data-link-type="dependency" data-source-line="77" id="lnk24"><path d="M636.66,443.52 C636.66,498.99 636.66,592.42 636.66,592.42 C636.66,592.42 631.82,592.42 617.08,592.42" fill="none" id="BizLogic-to-Deps" style="stroke:#181818;stroke-width:1;"></path><polygon fill="#181818" points="611.08,592.42,620.08,596.42,616.08,592.42,620.08,588.42,611.08,592.42" style="stroke:#181818;stroke-width:1;"></polygon><text fill="#000000" font-family="sans-serif" font-size="11" lengthAdjust="spacing" textLength="89.7725" x="649.3206" y="514.9704">каждый запрос</text><text fill="#000000" font-family="sans-serif" font-size="11" lengthAdjust="spacing" textLength="113.0938" x="637.66" y="527.7751">проходит проверку</text></g><!--link BizLogic to Auth--><g class="link" data-entity-1="ent0009" data-entity-2="ent0013" data-link-type="dependency" data-source-line="78" id="lnk25"><path d="M691.32,443.44 C691.32,477.53 691.32,520.38 691.32,555.13" fill="none" id="BizLogic-to-Auth" style="stroke:#181818;stroke-width:1;"></path><polygon fill="#181818" points="691.32,561.13,695.32,552.13,691.32,556.13,687.32,552.13,691.32,561.13" style="stroke:#181818;stroke-width:1;"></polygon><text fill="#000000" font-family="sans-serif" font-size="11" lengthAdjust="spacing" textLength="37.9092" x="653.32" y="499.5004">/auth/*</text></g><!--link BizLogic to Val--><g class="link" data-entity-1="ent0009" data-entity-2="ent0017" data-link-type="dependency" data-source-line="79" id="lnk26"><path d="M632.01,443.46 C632.01,463.86 632.01,484.42 632.01,484.42 C632.01,484.42 151,484.42 151,484.42 C151,484.42 151,520.94 151,555.16" fill="none" id="BizLogic-to-Val" style="stroke:#181818;stroke-width:1;"></path><polygon fill="#181818" points="151,561.16,155,552.16,151,556.16,147,552.16,151,561.16" style="stroke:#181818;stroke-width:1;"></polygon><text fill="#000000" font-family="sans-serif" font-size="11" lengthAdjust="spacing" textLength="93.7041" x="279.61" y="495.6304">валидация body</text></g><!--link Deps to Auth--><!--link Auth to Sec--><!--link Sec to ES--><!--link Val to ES--><!--link BizLogic to ES--><g class="link" data-entity-1="ent0009" data-entity-2="ent0018" data-link-type="dependency" data-source-line="87" id="lnk31"><path d="M641.32,443.22 C641.32,537.25 641.32,765.42 641.32,765.42 C641.32,765.42 485.7,765.42 395.73,765.42" fill="none" id="BizLogic-to-ES" style="stroke:#181818;stroke-width:1;"></path><polygon fill="#181818" points="389.73,765.42,398.73,769.42,394.73,765.42,398.73,761.42,389.73,765.42" style="stroke:#181818;stroke-width:1;"></polygon><text fill="#000000" font-family="sans-serif" font-size="11" lengthAdjust="spacing" textLength="120.1997" x="520.32" y="727.3204">запись/чтение логов</text></g><!--link BizLogic to PG--><g class="link" data-entity-1="ent0009" data-entity-2="ent0010" data-link-type="dependency" data-source-line="88" id="lnk32"><path d="M791.34,443.21 C791.34,489.42 791.34,559.42 791.34,559.42 C791.34,559.42 806.89,559.42 831.38,559.42" fill="none" id="BizLogic-to-PG" style="stroke:#181818;stroke-width:1;"></path><polygon fill="#181818" points="837.38,559.42,828.38,555.42,832.38,559.42,828.38,563.42,837.38,559.42" style="stroke:#181818;stroke-width:1;"></polygon><text fill="#000000" font-family="sans-serif" font-size="11" lengthAdjust="spacing" textLength="113.9263" x="792.34" y="521.5504">запросы аналитики</text></g><!--link Deps to GMN33--><g class="link" data-entity-1="ent0014" data-entity-2="ent0034" data-link-type="association" data-source-line="91" id="lnk35"><path d="M601.72,567.83 C601.72,544.92 601.72,519.42 601.72,519.42 C601.72,519.42 1162,519.42 1162,519.42 C1162,519.42 1162,554.34 1162,579.16" fill="none" id="Deps-GMN33" style="stroke:#181818;stroke-width:1;stroke-dasharray:7,7;"></path></g><!--?plantuml-src dLRhRXD75Fw_Jp6YgfguE8bp9GWYESaQA6dhulGY4HHDTYVEAkjPTtTDOX0IISf52b88ee2WN2lrNqLg0gG1mYlClW9Fqk_C-kw4qZhAsZjpvdndpldE9LXqP97xlC3ckBMOzxsIj2Syr_FPPncJ_eoWBc5vXQ8dXGnpOTaLp1TMo6NU5KqYjfZd9JVCU11oBWYMIZLj1WlSzfOScMVpt0sQZxcE566vA9ZdXmkUqRHJX5KyBzX5W-4ptchZiME-iCV6OEgaEMbEn2AURmk_TNkYRs2qVrnlasMjcwFz_UFzAMD__MNXkjwIXZ0pe-P89qIJnC3eHAg_7QMnFp8vFDntv02Wl2-492apdKbdKfquTO7-aRGvtDSEKzzEcKS61qS_Xd9AIk6JwEHGPiWSE02gBbN5ksJinuJzum9Vw4-xQYYR6327sfH9BnG7wZcI6SsaE_MapV7XyGpf-O8Tht-Okg-Ug9lggNg8vtEcxgf7zBD9nAWHwX0sVbMt8N0Btq_m_x3zLDVtClHBGIZixaEinfVOq8O33k7yE_KokexdZdh9eXMyN5OLjHEjHEipiajjutLFlOlM3xCJ4xd3ZEVXu3mFFV_mZ7HaKFAvjCHXv5E-vD9oJqyF07d0pEKmTzuYRqxqJVHr06z2yLQqfbuJ8WF6Umsz5QsgFVhMEiPzRoaG_e5A7aDsLRs4VLTX_vPw4zqWMzNVCnAAts1tJRsDrd6_DoIbRxchDQV34BxKgbEZWqVIdT6uerRK0_Ni4sBnEsBsGCVYeNh4_YKiEL5mahN8mCndkFPAj1gjix7ZRA3lSmfMFUqk6krNJYI-oJjoEP6OaMV4UU47WcLzRxay8vFupCZfgHmBXLzm90yTJqAAWw2kKt12r2xW_GONNuwkutyDhjk1cxR8UT66TejMlW_e6S6ja6LyvAoGDg7dGW1OB9TDrw3L8ugT-ekYfrvfVnEdr2iWNSOBmgEs87QBK14OUc_2PrY8XNQqORjg1y9_gbsj3xeq4olnRz9RGQ0hMDgkaWNbljFm30_2TFQKJiwgvMfJmnBlLv944lL2msqnzRR5EK2htStryWof7OfWHdB9tJBk7bHNOgOw5wQyl6F59jWyv7CSiO45MIy8aJEvxwOq-CssIswr95sCsGL6N843tzAkjYIw1bvlG6uLMnlTTPVVmqNsjBQwSx1QOPEU9ZSQqvBdBseBioTYsrfPVXSaVG2cjzCKkjuHDFJkK0WtaLlaaR-xctE0z3NouEF4dwvoddsuV9krqduafdsj3LHPtw8ywxcELMQcdFTyInGekbdFmVFOiQoP7Hkhdw-L_ejr7HsSG0w0DM0WoWNZfN210eDSSkRBiqKU172PtGKVEq5G4hFSiaGGp8OU-4Ehjh0yMymc6YjpbbykXd5PWRPF1BP54OGKqd94G0RuukUIumElwCmkYZ8fhYtD2UuB7xQLNOzhqnOAtEeXtTYOjPsy2CAkkEnEYc9Gj-3IFfvKzoccwhqEvmjTSd-9ym-1hbIpShjH5VwdNmDXbNmdBDFLllfncdMTpFKF3TUznHPuiA0hadOZAo2hyZgk-XOvONqYpddkEhQkTOIKBTjSKbqg84PkG6NATwpmQthh4ikXpu-3G7CEbTwC8rmRccM0PL09qbCEQYTtcP2bGfpNFt1tFsys9xZfeiOuLWv1iZILr9r6nMEdKwbQjgQB5F6a9ztoVqjTCsV4-1rDwYaIxZbox5vpLbOxRnBpgaoEnJMT7KKWqHp6nk2aRtFJh1SbhHV6dlqfYVgOF2tAvunQkptmvCdfwMpEgFVE7fBhQSYXXwEFez-knkLq6uMBadmD6rk64OlLb6TCdEXDC2fsgxhlwtBOtIPMAwmaZDGWaxk0GJxRHRriwmhTXb4_KDD06K76xUgsj4tZ0QEs4sk9Lk3r-DSLtKnGc5aLeA8ByswqrgcK4bsRXE_UHES-U4EO7Vd4vZoxR1ZQfkJP1ST61JZdE_c5iAhKq9exjYWX33mQErKWS8EmzbdkDChCaKtwwdh2kz4RNOldfxYZnhqGz-uycZrHFnfx3PMxis4RXfw7jT7CcwyL8wJiCzt3D2lUw_g3TaQdu16yqWIghOWsZYOIEC5f068VhjvgmMJL8V6bzkTct0o9Pdho8nqu2YUKcJuws9Vg7UmRO5-st1b1QPb93EIa7kEhnizvOUWLo7gTTd6vrAPUYsTBklUkld45VV8FjPbCTVUGv6FC3HjesdiaqyHzfkUD2aqSZ1vwQdcj1VMOf0y_esA0yNLNxJ4WnTTyNPjRUXfM_WC0?--></g></svg>